<svg id="Layer_1" data-name="Layer 1" xmlns="http://www.w3.org/2000/svg" viewBox="0 0 419.12 332.48"><defs><style>.cls-1,.cls-2{fill:#fff;}.cls-2{fill-rule:evenodd;}</style></defs><title>24sata</title><path class="cls-1" d="M0,0V332.48H419.12V0ZM409.11,261.38v61.06h-399V10.15h399Z"/><path class="cls-1" d="M204.53,261.79V204.92H80.42c5.1-15.12,18.36-29.16,66-52.55,45.56-22.32,56.45-42.48,56.45-75.59,0-45.71-31-70.91-90.12-70.91-40.8,0-71.74,12.24-102,32.76L41,90.1C64.78,73.18,87.9,64.54,111.7,64.54c19,0,26.53,6.12,26.53,17.28,0,10.08-3.74,14-28.91,25.92C49.81,135.81,12.07,176.84,10,261.79Z"/><path class="cls-2" d="M409.61,218.59v-59H365.72V9.83H300.43L172.23,165.68v51.11H306.55v45h59.17v-43.2h43.89Zm-102-138.21c-.68,11.88-1,39.59-1,54.35v24.83H288.87c-16.32,0-32.64.36-44.55,1.08,8.84-9,18.71-20.51,31.29-36.71l3.4-4.32c15.64-19.8,22.1-28.79,28.56-39.23Z"/><polygon class="cls-1" points="287.18 282.08 287.18 272 244.26 272 244.26 282.08 258.62 282.08 258.62 313.76 272.83 313.76 272.83 282.08 287.18 282.08 287.18 282.08"/><path class="cls-1" d="M60.08,300.93c0-7.81-5.71-11-18.6-13.54-6.59-1.25-8.42-2-8.42-3.52s1-2.56,5.27-2.56a28.77,28.77,0,0,1,14.28,3.93l6.89-9.06c-5.42-3.11-11.72-4.84-20.44-4.84-12.38,0-20.21,5.31-20.21,13.19,0,8.35,5.93,11.09,18.31,13.42,6.88,1.31,8.71,2.27,8.71,3.82,0,2-1.61,2.68-6.66,2.68-4.76,0-11.28-2.09-15-4.17l-6.88,9.06a47.81,47.81,0,0,0,21.61,5.07c12.3,0,21.16-3.93,21.16-13.48Z"/><path class="cls-2" d="M400.11,313.76,381.51,272H367.15l-18.6,41.76h15.23l2.79-7.34H382l2.78,7.34Zm-21.6-16.53H370l.95-2.74a107.42,107.42,0,0,0,3.3-10.44c.66,2.8,1.46,5.07,3.29,10.44l1,2.74Z"/><path class="cls-2" d="M174.43,313.76,155.82,272H141.46l-18.6,41.76h15.23l2.79-7.34h15.38l2.78,7.34Zm-21.61-16.53h-8.5l1-2.74a104.63,104.63,0,0,0,3.3-10.44c.66,2.8,1.46,5.07,3.29,10.44l1,2.74Z"/></svg>