<svg id="BLACK" xmlns="http://www.w3.org/2000/svg" viewBox="0 0 291.47 294.55"><defs><style>.cls-1{fill:#fff;}</style></defs><title>A1_01_07BAW_1_A_from_50mm</title><polygon class="cls-1" points="132.5 126.93 148.52 186.57 165.53 186.56 140.47 101.79 132.5 126.93"/><path class="cls-1" d="M168.25,46.06a2.21,2.21,0,0,0-1.71-1.56L117,34.71,33.38,286.29a2.25,2.25,0,0,1-2.13,1.54,2.15,2.15,0,0,1-.7-.12,2.23,2.23,0,0,1-1.42-2.83L112.18,35.07,84.23,48.69a2.19,2.19,0,0,0-1.12,1.25L.13,280a2.24,2.24,0,0,0,1.16,2.79l24.82,11.59h0a2.22,2.22,0,0,0,.94.21,1.37,1.37,0,0,0,.29,0l57-7.39a2.26,2.26,0,0,0,1.87-1.61l14-49.31,41-2.12L180,232a2.2,2.2,0,0,1,2.23,1.57L191.83,266a2.19,2.19,0,0,1-1.48,2.73,2,2,0,0,1-.63.09,2.2,2.2,0,0,1-2.11-1.57l-9.12-30.74-17.47.93,7.84,31.75a2.25,2.25,0,0,0,1.74,1.66l20.13,4a3.28,3.28,0,0,0,.43,0l10.67-1.41h0l29.8-3.61A2.23,2.23,0,0,0,233.5,267Zm2,144a2.22,2.22,0,0,1-1.76.88l-57.89,0a2.2,2.2,0,0,1-2.1-2.86l30-94.51a2.21,2.21,0,0,1,2.1-1.54h0a2.21,2.21,0,0,1,2.09,1.58l27.94,94.49A2.18,2.18,0,0,1,170.24,190.08Z" transform="translate(0)"/><path class="cls-1" d="M237.54,71.72c-2.24,1.84-4.69,3.76-7.39,5.74a151.41,151.41,0,0,1-23.3,14.1L220.76,93h.34a.72.72,0,0,0,.28-.1s8.28-3.77,11.08-5.16c1.28-.63,3.26-1.77,5.08-2.85Z" transform="translate(0)"/><path class="cls-1" d="M291.43,8.59a.42.42,0,0,0-.1-.29L283.64.14,283.49,0V183.24a2.21,2.21,0,1,1-4.41,0V.46l-29,4a7.47,7.47,0,0,0-.86.15c-.4.09-.43.57-.43.57s-.24,2.34-3,8.5-4,9.41-14.61,20.34-24,16.73-24.78,17.14a4.18,4.18,0,0,0-1.38,1,1.8,1.8,0,0,0-.15.86V87.62a148,148,0,0,0,22.69-13.71A164.73,164.73,0,0,0,242,62.07V82.22h0v0s0,.11,0,.11v104.9c0,.18.24.19.24.19l40.15,3.39h.24a.28.28,0,0,0,.1,0s8.68-5.86,8.74-5.92a.19.19,0,0,0,0-.14S291.43,8.8,291.43,8.59Z" transform="translate(0)"/></svg>