<?xml version="1.0" encoding="utf-8"?>
<!-- Generator: Adobe Illustrator 23.0.3, SVG Export Plug-In . SVG Version: 6.00 Build 0)  -->
<svg version="1.1" id="Layer_1" xmlns="http://www.w3.org/2000/svg" xmlns:xlink="http://www.w3.org/1999/xlink" x="0px" y="0px"
	 viewBox="0 0 261.6 121.7" style="enable-background:new 0 0 261.6 121.7;" xml:space="preserve">
<style type="text/css">
	.st0{fill:#FFFFFF;}
</style>
<g>
	<polygon class="st0" points="87.9,60.8 87.9,43.2 101.2,43.2 101.2,46.5 91.5,46.5 91.5,50.6 97.2,50.6 97.2,53.8 91.5,53.8 
		91.5,60.8 	"/>
	<path class="st0" d="M114.1,61.1c-5.3,0-9.3-3.9-9.3-9V52c0-5.1,4.1-9.1,9.4-9.1c5.3,0,9.3,3.9,9.3,9V52
		C123.5,57.1,119.4,61.1,114.1,61.1 M114.1,46.2c-3.1,0-5.5,2.5-5.5,5.7V52c0,3.2,2.4,5.8,5.6,5.8c3.1,0,5.5-2.5,5.5-5.7V52
		C119.7,48.7,117.2,46.2,114.1,46.2"/>
	<path class="st0" d="M139.7,60.8l-3.5-5.7l-4.6,0v5.7h-3.6V43.2h8.3c2.2,0,3.9,0.6,5.1,1.8c1,1,1.5,2.4,1.5,4V49
		c0,2.2-1.2,4.4-3.1,5.4l3.9,6.4H139.7z M131.5,51.9h4.4c2,0,3.2-1,3.2-2.7v-0.1c0-1.7-1.2-2.7-3.2-2.7h-4.3V51.9z"/>
	<polygon class="st0" points="152.5,60.8 152.5,46.5 147.1,46.5 147.1,43.2 161.6,43.2 161.6,46.5 156.1,46.5 156.1,60.8 	"/>
	<polygon class="st0" points="166.4,60.8 166.4,43.2 179.6,43.2 179.6,46.4 170,46.4 170,50.3 175.7,50.3 175.7,53.5 170,53.5 
		170,57.6 179.7,57.6 179.7,60.8 	"/>
	<polygon class="st0" points="197.6,60.8 188.7,49.1 188.7,60.8 185.1,60.8 185.1,43.2 188.5,43.2 197.2,54.5 197.2,43.2 
		200.7,43.2 200.7,60.8 	"/>
	<path class="st0" d="M214.6,61.1c-5.3,0-9.3-3.9-9.3-9V52c0-5.1,4.1-9.1,9.4-9.1c5.3,0,9.3,3.9,9.3,9V52
		C224,57.1,219.9,61.1,214.6,61.1 M214.6,46.2c-3.1,0-5.5,2.5-5.5,5.7V52c0,3.2,2.4,5.8,5.6,5.8c3.1,0,5.5-2.5,5.5-5.7V52
		C220.2,48.7,217.7,46.2,214.6,46.2"/>
	<polygon class="st0" points="232.7,60.9 225.5,43.2 229.6,43.2 234.3,56.1 239.1,43.2 243,43.2 235.9,60.9 	"/>
	<path class="st0" d="M257.8,60.8l-1.6-4h-7.8l-1.6,4h-3.7l7.5-17.7h3.4l7.5,17.7H257.8z M249.7,53.6h5.2l-2.6-6.4L249.7,53.6z"/>
	<path class="st0" d="M95.1,83.7c-5.4,0-9.3-3.7-9.3-9v-0.1c0-5.1,4.1-9.1,9.2-9.1c2.8,0,4.8,0.7,6.8,2.3l-2.3,2.8
		c-1.3-1.1-2.6-1.8-4.7-1.8c-2.9,0-5.3,2.6-5.3,5.7v0.1c0,3.4,2.3,5.8,5.6,5.8c1.5,0,2.8-0.4,3.8-1.1l0.1,0v-2.8h-3.9v-3.1h7.4v7.5
		C100.4,82.8,97.9,83.7,95.1,83.7"/>
	<path class="st0" d="M135.7,83.7c-4.9,0-7.8-2.8-7.8-7.8V65.8h3.6v10c0,2.9,1.7,4.6,4.3,4.6c2.6,0,4.3-1.6,4.3-4.4V65.8h3.6v9.9
		C143.7,80.8,140.7,83.7,135.7,83.7"/>
	<path class="st0" d="M148.6,83.4V65.8h7.2c4.1,0,6.7,2.4,6.7,6v0.1c0,3.7-2.8,6.1-7.1,6.1h-3.1v5.4H148.6z M152.2,74.8h3.3
		c2,0,3.3-1.2,3.3-2.9v-0.1c0-1.8-1.3-2.9-3.4-2.9h-3.2V74.8z"/>
	<path class="st0" d="M179.5,83.4l-1.6-4h-7.8l-1.6,4h-3.7l7.5-17.7h3.4l7.5,17.7H179.5z M171.4,76.2h5.2l-2.6-6.4L171.4,76.2z"/>
	<path class="st0" d="M119.4,83.4l-3.5-5.7l-4.6,0v5.7h-3.6V65.8h8.3c2.2,0,3.9,0.6,5.1,1.8c1,1,1.5,2.3,1.5,4v0.1
		c0,2.2-1.1,4.4-3.1,5.3l4.2,6.5H119.4z M111.2,74.5h4.4c2,0,3.2-1,3.2-2.7v-0.1c0-1.7-1.2-2.7-3.2-2.7h-4.3V74.5z"/>
	<path class="st0" d="M40.3,59.4C37.9,58.7,30,60.6,30,61.8c0,1.3,7.7,3.6,10.1,3.1C42.5,64.3,42.6,60.1,40.3,59.4"/>
	<path class="st0" d="M42.3,68c-2.8-0.1-11,4-10.7,5.4c0.3,1.4,9.5,1.9,12,0.6C46.1,72.8,45.1,68.1,42.3,68"/>
	<path class="st0" d="M44.5,76.7c-2.2,0.3-8,4.7-7.6,5.7c0.4,1.1,7.7,0.1,9.5-1.2C48.1,79.9,46.7,76.4,44.5,76.7"/>
	<path class="st0" d="M30.7,82.6c2.5-1.5,1.2-6.3-1.7-6.3c-2.9,0-11.3,4.9-10.8,6.4C18.5,84.1,28.2,84,30.7,82.6"/>
	<path class="st0" d="M56.9,71.8c-0.2-0.5-3.4-0.8-4.6-0.4c-1.2,0.4-3.6,2.5-3.4,3.1c0.2,0.5,3.4,0.8,4.6,0.4
		C54.7,74.5,57.1,72.4,56.9,71.8"/>
	<path class="st0" d="M72.9,14.5c-0.2,0.1-0.4,0.8-0.3,1.2c0,0.3,0.5,1.6,0.6,1.8c0.2,0.3,0.8,0.7,1,0.7c0.2-0.1,0.4-0.8,0.3-1.2
		c0-0.3-0.5-1.6-0.6-1.8C73.7,14.9,73,14.5,72.9,14.5"/>
	<path class="st0" d="M26.9,5.6c-0.1,0.1-0.1,0.9,0,1.2c0.1,0.3,0.9,1.3,1.2,1.5c0.3,0.2,1,0.4,1.2,0.3c0.1-0.1,0.1-0.9,0-1.2
		c-0.1-0.3-0.9-1.3-1.2-1.5C27.8,5.8,27.1,5.5,26.9,5.6"/>
	<path class="st0" d="M53,0c-0.1,0.1-0.3,0.9-0.2,1.2c0.1,0.3,0.7,1.5,0.9,1.7s0.9,0.6,1.1,0.5C55,3.4,55.1,2.6,55,2.3
		c-0.1-0.3-0.7-1.5-0.9-1.7C53.9,0.3,53.2-0.1,53,0"/>
	<path class="st0" d="M57.7,23.4c-0.5,0.4,0.4,4.2,1.4,5.4c0.9,1.2,4.4,3.1,4.9,2.6c0.5-0.4-0.4-4.2-1.4-5.4
		C61.7,24.8,58.3,23,57.7,23.4"/>
	<path class="st0" d="M63.5,4.4c-0.7,0.2-1.3,4-0.9,5.5c0.4,1.5,2.8,4.5,3.5,4.4c0.7-0.2,1.3-4,0.9-5.5C66.6,7.2,64.2,4.2,63.5,4.4"
		/>
	<path class="st0" d="M65.8,18.6c-0.4,0.2-0.6,2.2-0.3,3.1c0.3,0.9,1.8,3.3,2.4,3.7c0.5,0.4,1.7-0.2,1.8-0.8
		c0.1-0.6-0.8-3.4-1.3-4.2C67.8,19.6,66.1,18.4,65.8,18.6"/>
	<path class="st0" d="M48.1,85.6c-0.5,0-2.9,0.9-3.5,1.3c-0.6,0.5-1.5,2-1.4,2.3c0.2,0.3,1.9,0.4,2.7,0.1c0.7-0.3,2.7-1.8,3-2.2
		C49.2,86.6,48.6,85.6,48.1,85.6"/>
	<path class="st0" d="M30.1,52c-0.1,0.6,2.8,2.2,4.1,2.3c1.3,0.1,4.4-0.8,4.5-1.4c0.1-0.6-2.8-2.2-4.1-2.3
		C33.3,50.5,30.2,51.4,30.1,52"/>
	<path class="st0" d="M40.3,44.3c0.3-0.6-2.2-3.4-3.6-4c-1.3-0.6-5.1-0.7-5.4-0.1c-0.3,0.6,2.2,3.4,3.6,4
		C36.3,44.8,40,44.9,40.3,44.3"/>
	<path class="st0" d="M43.1,35.4c2.7,0.7,5.1-3.4,3.1-5.4c-2-2-10.9-4.3-11.6-3C33.8,28.2,40.4,34.7,43.1,35.4"/>
	<path class="st0" d="M52.8,22.4c-1.5-2.7-10.1-7.9-11.3-6.8c-1.1,1.1,3.7,10,6.3,11.5C50.4,28.7,54.2,25.1,52.8,22.4"/>
	<path class="st0" d="M60,16c-0.7-2.5-7.1-8.6-8.2-7.9c-1.2,0.7,1.3,9.1,3.2,11C56.8,20.9,60.7,18.6,60,16"/>
	<path class="st0" d="M36.4,92.6c2.3-1.6,0.6-6.1-2.2-5.9c-2.8,0.3-10.4,5.7-9.9,7.1C24.9,95.1,34.2,94.2,36.4,92.6"/>
	<path class="st0" d="M13.9,68.3c-0.1,1.6,9.6,4.8,12.6,4.1c3-0.6,3.3-6,0.4-6.9C23.9,64.5,14,66.7,13.9,68.3"/>
	<path class="st0" d="M12.9,53.8c-0.4,1.6,8.5,6.6,11.5,6.5c3.1,0,4.4-5.2,1.7-6.7C23.5,52.1,13.3,52.2,12.9,53.8"/>
	<path class="st0" d="M14.8,39.9c-0.7,1.4,7,8.1,10,8.7c3,0.6,5.3-4.2,3-6.2C25.5,40.3,15.5,38.5,14.8,39.9"/>
	<path class="st0" d="M31.7,31.6c-1.9-2.4-11.3-6.2-12.3-4.9c-1,1.3,5.3,9.3,8.1,10.5C30.4,38.3,33.6,34,31.7,31.6"/>
	<path class="st0" d="M36.8,19.9c-1.2-2.3-8.6-7-9.6-6.1c-1,0.9,3.1,8.6,5.4,10C34.7,25.3,38,22.2,36.8,19.9"/>
	<path class="st0" d="M42.7,10.5c0.5,0.2,1.5-0.4,1.4-1c0-0.6-1.2-2.9-1.8-3.5c-0.5-0.6-2.2-1.3-2.5-1.1c-0.3,0.2-0.1,2.1,0.2,2.8
		C40.3,8.3,42.1,10.2,42.7,10.5"/>
	<path class="st0" d="M29.6,108.8c-1.2,0.9-3.1,4.2-2.7,4.8c0.4,0.5,4.2-0.3,5.4-1.2c1.2-0.9,3.1-4.2,2.7-4.8
		C34.5,107,30.8,107.9,29.6,108.8"/>
	<path class="st0" d="M28.4,103.5c2-1.9-0.3-6-3-5.4c-2.7,0.6-9.2,6.9-8.5,8.2C17.6,107.5,26.4,105.4,28.4,103.5"/>
	<path class="st0" d="M8.7,93.8c0.4,1.4,9.8,1.1,12.2-0.3c2.4-1.5,1-6.1-1.8-6.1C16.3,87.4,8.2,92.4,8.7,93.8"/>
	<path class="st0" d="M10.8,79.9c1.7-0.3,5.4-2.8,5.3-3.6c-0.1-0.8-4.5-1.8-6.2-1.5c-1.7,0.3-5.4,2.8-5.3,3.6
		C4.7,79.2,9.1,80.3,10.8,79.9"/>
	<path class="st0" d="M7.6,64.7c1.6,0,5.2-1.5,5.2-2.2c0-0.7-3.6-2.3-5.2-2.4c-1.6,0-5.2,1.5-5.2,2.2C2.4,63.1,6,64.7,7.6,64.7"/>
	<path class="st0" d="M7.8,48.3c1.4,0.5,5.3,0.3,5.6-0.3c0.2-0.6-2.6-3.4-4-3.9c-1.4-0.5-5.3-0.3-5.6,0.3
		C3.6,45.1,6.4,47.8,7.8,48.3"/>
	<path class="st0" d="M8,27.9c-0.6,1,4.7,6.3,6.9,6.9c2.2,0.6,4.1-2.6,2.5-4.2C15.8,29,8.6,27,8,27.9"/>
	<path class="st0" d="M20.4,21.1c0.5,0.1,1.2-0.8,1-1.3c-0.2-0.5-1.9-2.2-2.6-2.6c-0.6-0.4-2.4-0.6-2.6-0.3c-0.2,0.3,0.4,1.9,1,2.4
		C17.7,19.8,19.9,21,20.4,21.1"/>
	<path class="st0" d="M26,119.2c-0.3,0.1-1.4,0.9-1.7,1.2c-0.2,0.3-0.5,1-0.4,1.2c0.1,0.1,0.9,0.2,1.2,0c0.3-0.1,1.4-0.9,1.7-1.2
		c0.2-0.3,0.5-1,0.4-1.2C27.1,119.1,26.3,119.1,26,119.2"/>
	<path class="st0" d="M39.1,98.1c-0.3,0.1-1.4,0.9-1.7,1.2s-0.5,1-0.4,1.2c0.1,0.1,0.9,0.2,1.2,0c0.3-0.1,1.4-0.9,1.7-1.2
		c0.2-0.3,0.5-1,0.4-1.2C40.2,98,39.4,98,39.1,98.1"/>
	<path class="st0" d="M18.1,116.5c1-0.7,2.5-3.3,2.2-3.7c-0.3-0.4-3.3,0.2-4.2,0.8c-1,0.7-2.5,3.3-2.2,3.7
		C14.2,117.8,17.1,117.2,18.1,116.5"/>
	<path class="st0" d="M8.5,105.9c1.2-0.7,3.2-3.4,2.9-3.9c-0.3-0.5-3.7-0.2-4.9,0.5c-1.2,0.7-3.2,3.4-2.9,3.9
		C3.9,106.9,7.3,106.6,8.5,105.9"/>
	<path class="st0" d="M55.8,66.9c2-1,1.3-4.9-1-5c-2.3-0.1-9.1,3.2-8.8,4.4C46.1,67.4,53.7,67.9,55.8,66.9"/>
	<path class="st0" d="M51.8,33.9c0.6,0.7,3.1,2.3,3.7,2.4c0.6,0.1,1.5-0.8,1.3-1.4c-0.2-0.6-2.2-2.8-2.9-3.3
		c-0.8-0.5-2.8-0.9-3.1-0.6C50.5,31.3,51.2,33.2,51.8,33.9"/>
	<path class="st0" d="M3.9,89.6c0.4-0.3,0.9-1.1,0.8-1.3c-0.1-0.2-1.1-0.4-1.5-0.4c-0.4,0.1-2,0.7-2.3,1C0.4,89.2-0.1,90,0,90.2
		s1.1,0.4,1.5,0.4C2,90.5,3.5,89.9,3.9,89.6"/>
	<path class="st0" d="M52.7,56.7c0-0.6-3-1.7-4.3-1.6c-1.3,0.1-4.2,1.5-4.1,2c0,0.6,3,1.7,4.3,1.6C49.8,58.7,52.7,57.3,52.7,56.7"/>
	<path class="st0" d="M49.6,51.2c1.9-0.3,2.1-3.6,0.4-4.2c-1.8-0.6-8,0.5-8.1,1.5C41.8,49.5,47.7,51.6,49.6,51.2"/>
	<path class="st0" d="M52.5,42.3c0.2-0.5-2.3-2.6-3.5-3c-1.2-0.4-4.4-0.1-4.6,0.5c-0.2,0.5,2.3,2.6,3.5,3
		C49.1,43.1,52.3,42.8,52.5,42.3"/>
</g>
</svg>
