<svg xmlns="http://www.w3.org/2000/svg" width="118" height="40"><path fill="#FFF" fill-rule="evenodd" d="M0 40h40V0H0v40zm7.467-12.513c8.344 0 15.056-8.94 15.066-19.974h10c-.014 13.795-11.2 24.974-25 24.974l-.066-5zM69 33V8h-4v10H51V8h-4v25h4V22h14v11zM85 8H73v25h4v-9h8c5.108-.322 9-3.036 9-8 0-5.358-3.892-8-9-8zm-1 12h-7v-8h7c3.17 0 6 1.606 6 4 0 3.282-2.558 4-6 4zm29-.538c2.892-1.274 4.022-3.148 4-5.462-.03-3.275-3.378-6-8-6H97v25h11c6.473 0 10-2.107 10-7.5 0-3.306-2.468-5.452-5-6.038zM109 18h-8v-6h8c3.125 0 4 1.672 4 3 0 1.434-1.18 3-4 3zm0 11h-8v-7h8c3.137 0 5 1.654 5 3.5 0 2.325-1.408 3.5-5 3.5z"/></svg>