<?xml version="1.0" encoding="utf-8"?>
<!-- Generator: Adobe Illustrator 23.0.3, SVG Export Plug-In . SVG Version: 6.00 Build 0)  -->
<svg version="1.1" id="Layer_1" xmlns="http://www.w3.org/2000/svg" xmlns:xlink="http://www.w3.org/1999/xlink" x="0px" y="0px"
	 viewBox="0 0 158.6 43.1" style="enable-background:new 0 0 158.6 43.1;" xml:space="preserve">
<style type="text/css">
	.st0{fill-rule:evenodd;clip-rule:evenodd;fill:#FFFFFF;}
</style>
<title>ina-logo-head</title>
<polygon class="st0" points="28.7,0 68,0 75.3,27.1 75.3,0 96.7,0 96.7,43.1 57.3,43.1 50.1,16.3 50.1,43.1 28.7,43.1 "/>
<path class="st0" d="M0,0h21.5v43.1H0V0L0,0z M10.7,1.3c-5.3,0-9.6,4.3-9.6,9.5c0,5.3,4.3,9.6,9.5,9.6c5.3,0,9.6-4.3,9.6-9.5
	C20.3,5.6,16,1.3,10.7,1.3z"/>
<path class="st0" d="M129.8,10.7l-2.5,10.8h5L129.8,10.7L129.8,10.7L129.8,10.7z M124.3,35.9l-1.7,7.2h-21.5L108.7,0H151l7.6,43.1
	h-21.5l-1.7-7.2H124.3z"/>
</svg>
