<?xml version="1.0" encoding="utf-8"?>
<!-- Generator: Adobe Illustrator 23.0.3, SVG Export Plug-In . SVG Version: 6.00 Build 0)  -->
<svg version="1.1" id="Layer_1" xmlns="http://www.w3.org/2000/svg" xmlns:xlink="http://www.w3.org/1999/xlink" x="0px" y="0px"
	 viewBox="0 0 370.1 141.6" style="enable-background:new 0 0 370.1 141.6;" xml:space="preserve">
<style type="text/css">
	.st0{fill:#FFFFFF;}
</style>
<title>LogoHP_novi</title>
<polygon class="st0" points="143.1,23.4 159.6,23.4 156,42.7 163.5,42.7 171.1,1.3 163.6,1.3 160.7,17.3 144.2,17.3 147.2,1.3 
	139.7,1.3 132.1,42.7 139.6,42.7 "/>
<polygon class="st0" points="209.3,43.3 228.8,12.4 220.6,12.4 209.9,30.8 204.9,12.4 197.5,12.4 206.8,43.3 "/>
<path class="st0" d="M177.9,42.7l3.2-17.1c0.4-2.1,1.4-4,2.9-5.5c1.3-1.5,3.1-2.3,5-2.4c1.7,0.1,3.2,0.8,4.5,1.9l2.1-7.2
	c-1.4-0.3-2.8-0.5-4.2-0.5c-3.1,0-6,1.2-8.3,3.2l0.5-2.6h-7.1l-5.7,30.3H177.9z"/>
<path class="st0" d="M253.2,31.9l3.5-18.6c-2.3-0.9-5.9-1.4-11.1-1.4c-5.1-0.1-10,2.2-13.2,6.2c-3.5,4.1-5.3,9.4-5.2,14.8
	c0,3.3,0.9,5.9,2.7,7.7c1.8,1.8,4.4,2.8,7.6,2.8c3.4,0.1,6.6-1.2,9-3.6c0.6,2,1.6,3,2.9,3h4.4c-0.7-1.5-1-4.4-1-8.5
	C252.9,33.4,253,32.6,253.2,31.9z M244.7,33.8c-1.5,2.5-3.3,3.8-5.3,3.8c-3.2,0-4.8-1.6-4.8-4.9c-0.1-3.7,0.9-7.3,2.8-10.4
	c1.9-3.1,4.4-4.6,7.6-4.6c1.3,0,2.6,0.2,3.8,0.6C247.6,26.1,246.2,31.3,244.7,33.8L244.7,33.8z"/>
<path class="st0" d="M338.4,14.9l-4.9-4.3c-2.2,2.7-4.6,5.1-7.2,7.2l-5.3,4.6L324.5,0h-7l-7.4,42.7h7.1l2-11.5l1.2-1l9.6,12.5h8.4
	l-12.5-16.4C333.4,19.7,337.5,15.9,338.4,14.9z"/>
<path class="st0" d="M274,18.1h8.3l1.2-5.7h-8.2l2.1-9.1l-8.1,3l-1.2,6.2h-3.5l-1.2,5.7h3.5l-3.4,15.2c-0.2,0.7-0.3,1.5-0.3,2.2
	c-0.1,2.1,0.7,4.1,2.1,5.6c1.5,1.5,3.5,2.2,5.5,2.2c2.8,0.1,5.6-0.2,8.3-1v-6.4c-1.6,0.8-3.3,1.3-5.1,1.5c-2.3,0-3.5-1-3.5-3.1
	c0-0.9,0.1-1.8,0.4-2.7L274,18.1z"/>
<path class="st0" d="M295.9,18.6c0.9-0.6,2-0.8,3.1-0.8c1.9,0,4,1,6.2,3l3.3-6.5c-3.7-1.6-6.8-2.4-9.1-2.4c-3.1-0.1-6.1,0.8-8.6,2.6
	c-2.3,1.6-3.6,4.2-3.5,7c0,1.3,0.3,2.6,1,3.7c0.8,1.2,1.9,2.1,3.1,2.8c1.4,0.8,2.9,1.6,4.7,2.5s2.6,1.9,2.6,2.9
	c0,1.1-0.5,2.2-1.4,2.9c-1,0.8-2.3,1.1-3.5,1.1c-2.3,0-4.6-1.1-6.9-3.3l-3.7,6.4c2.9,1.8,6.3,2.8,9.7,2.8c3.4,0.1,6.8-0.9,9.6-2.9
	c2.5-1.9,3.9-4.8,3.8-7.9c0-1.3-0.3-2.5-1-3.6c-0.7-1-1.6-1.9-2.7-2.5c-1.1-0.6-2.7-1.5-4.7-2.5c-2-1-3.1-2.1-3.1-3.2
	C294.7,19.9,295.2,19,295.9,18.6z"/>
<path class="st0" d="M366.6,31.9l3.5-18.6c-2.3-0.9-5.9-1.4-11.1-1.4c-5.1-0.1-10,2.2-13.2,6.2c-3.5,4.1-5.3,9.4-5.2,14.8
	c0,3.3,0.9,5.9,2.7,7.7s4.4,2.8,7.6,2.8c3.4,0.1,6.6-1.2,9-3.6c0.6,2,1.6,3,2.9,3h4.4c-0.7-1.5-1-4.4-1-8.5
	C366.3,33.4,366.4,32.6,366.6,31.9z M358.1,33.8c-1.5,2.5-3.3,3.8-5.3,3.8c-3.2,0-4.8-1.6-4.8-4.9c-0.1-3.7,0.9-7.3,2.8-10.4
	c1.9-3.1,4.4-4.6,7.6-4.6c1.3,0,2.6,0.2,3.8,0.6C361,26.1,359.6,31.3,358.1,33.8z"/>
<path class="st0" d="M285.6,70.1c-2.1-2-5.1-3.1-9.1-3.1c-4.9-0.1-9.6,2-12.7,5.7c-3.4,3.8-5.1,8.8-5,13.9c0,3.9,1.1,6.8,3.2,8.9
	c2.1,2.1,5.1,3.1,9,3.1c4.9,0.1,9.6-2,12.8-5.7c3.4-3.9,5.2-9,5-14.1C288.8,75,287.7,72.1,285.6,70.1z M278.8,88.7
	c-1.4,2.5-4.1,4.1-7,4.1c-3.7,0-5.6-2.2-5.6-6.5c-0.1-3.3,0.8-6.6,2.6-9.4c1.4-2.5,4.1-4.1,7-4.1c3.7,0,5.6,2,5.6,6.1
	C281.5,82.4,280.5,85.8,278.8,88.7z"/>
<path class="st0" d="M243,67c-2.9,0.1-5.6,1.1-7.8,2.9c-0.1-1-0.3-2-0.6-2.9l-6.9,1.3c0.3,1.6,0.5,3.3,0.5,5c0,1.2-0.1,2.5-0.4,3.7
	l-6.2,33.3l7.5-2.8l2-10.3c1.9,0.9,3.9,1.4,6,1.4c5.5,0,9.9-1.8,13.2-5.5c3.3-3.7,5-8.4,5-14.2C255.2,70.9,251.1,67,243,67z
	 M244.8,89.2c-2,2.3-4.8,3.4-8.5,3.4c-1.5,0.1-3-0.4-4.1-1.4l2.8-15c0.8-0.9,1.8-1.5,2.8-2c1-0.6,2.1-0.9,3.3-0.9
	c1.8-0.1,3.6,0.5,4.9,1.8c1.2,1.2,1.8,2.9,1.8,4.6C247.8,83.7,246.8,86.9,244.8,89.2z"/>
<path class="st0" d="M366.5,87.1l3.5-18.7c-2.3-1-6-1.4-11.1-1.4c-5.1-0.1-10,2.2-13.2,6.2c-3.5,4.1-5.4,9.4-5.2,14.8
	c0,3.3,0.9,5.9,2.7,7.8s4.4,2.8,7.7,2.8c3.4,0.1,6.7-1.2,9.1-3.6c0.6,2,1.6,3,3,3h4.4c-0.7-1.6-1-4.4-1-8.6
	C366.3,88.6,366.4,87.9,366.5,87.1z M358,89c-1.5,2.5-3.3,3.8-5.3,3.8c-3.2,0-4.8-1.6-4.8-4.9c-0.1-3.7,0.9-7.3,2.8-10.5
	c1.9-3.1,4.4-4.6,7.6-4.6c1.3,0,2.6,0.2,3.8,0.6C360.9,81.3,359.6,86.5,358,89z"/>
<path class="st0" d="M296.8,69.7c-2.3,1.6-3.6,4.2-3.5,7c0,1.3,0.3,2.6,1,3.7c0.8,1.2,1.9,2.1,3.1,2.8c1.4,0.8,2.9,1.6,4.7,2.5
	c1.8,0.9,2.7,1.9,2.7,2.9c0.1,1.2-0.4,2.3-1.4,3c-1,0.8-2.3,1.1-3.5,1.1c-2.3,0-4.6-1.1-7-3.3l-3.8,6.4c3,1.8,6.3,2.8,9.8,2.8
	c3.4,0.1,6.8-0.9,9.6-2.9c2.5-1.9,3.9-4.8,3.8-7.9c0-1.3-0.3-2.5-1-3.6c-0.7-1-1.6-1.9-2.7-2.5c-1.1-0.6-2.7-1.5-4.7-2.5
	s-3.1-2.1-3.1-3.2c0-0.9,0.5-1.7,1.3-2.2c0.9-0.6,2-0.8,3.1-0.8c1.9,0,4,1,6.3,3l3.3-6.5c-3.7-1.6-6.8-2.4-9.1-2.4
	C302.4,66.9,299.3,67.8,296.8,69.7z"/>
<path class="st0" d="M333.4,58.4l-8.1,2.9l-1.2,6.2h-3.5l-1.2,5.7h3.5l-3.4,15.3c-0.2,0.7-0.3,1.5-0.3,2.3c-0.1,2.1,0.7,4.1,2.1,5.6
	c1.5,1.5,3.5,2.2,5.6,2.1c2.8,0.1,5.6-0.2,8.4-1v-6.5c-1.6,0.8-3.3,1.3-5.1,1.5c-2.4,0-3.5-1-3.5-3.1c0-0.9,0.1-1.8,0.4-2.7
	l3.1-13.5h8.4l1.2-5.7h-8.4L333.4,58.4z"/>
<polygon class="st0" points="306.9,59.5 302.7,55.8 298.1,55.8 302.5,63.8 309.5,63.8 317.1,55.8 312.6,55.8 "/>
<path class="st0" d="M190.2,70.6c-0.7,0-1.3,0.6-1.3,1.3c-5.7,31.4-35.8,52.3-67.3,46.6c-27.5-5-47.6-29-47.5-57
	C74,32,95.6,7.7,124.1,4.2c0.7-0.1,1.3-0.7,1.3-1.5c0-0.8-0.6-1.4-1.4-1.4c0,0,0,0,0,0c-1.3,0-1.9,0-3.3,0H0l59.5,103.3
	c18.3,34.1,60.9,46.9,95,28.6c22.6-12.2,36.8-35.7,37-61.4C191.5,71.1,190.9,70.6,190.2,70.6z"/>
</svg>
