<svg id="Layer_1" data-name="Layer 1" xmlns="http://www.w3.org/2000/svg" viewBox="0 0 565.54 71.05"><defs><style>.cls-1,.cls-2{fill:#fff;}.cls-2{fill-rule:evenodd;}</style></defs><title>LogoHP_uzduzni</title><path class="cls-1" d="M124.71,7.5h10V31h21.09V7.5h9.95V64.18h-9.95V38.3H134.66V64.18h-10Z" transform="translate(-9.66 -6.27)"/><path class="cls-1" d="M170.54,25.08H180V33h.16c.57-.93,1.18-1.87,1.84-2.83a11.91,11.91,0,0,1,2.46-2.63,12.14,12.14,0,0,1,3.61-1.93,16,16,0,0,1,5.19-.74v9.53q-7.14,0-10.2,3.12C181,39.59,180,43.59,180,48.3V64.18h-9.44Z" transform="translate(-9.66 -6.27)"/><path class="cls-1" d="M195.08,25.08H205l9,26.78h.17l9.1-26.78h9.87l-14.46,39.1h-9.18Z" transform="translate(-9.66 -6.27)"/><path class="cls-1" d="M254.44,59.66h-.17A11.73,11.73,0,0,1,253,61.59a7.86,7.86,0,0,1-2,1.72,12,12,0,0,1-3.06,1.28,16.12,16.12,0,0,1-4.17.49,13.11,13.11,0,0,1-8.5-2.75,9.15,9.15,0,0,1-3.4-7.52,11.07,11.07,0,0,1,1.27-5.46,11.27,11.27,0,0,1,3.32-3.7A16.91,16.91,0,0,1,241,43.4a30.59,30.59,0,0,1,5.06-1.19,44.15,44.15,0,0,1,4.72-.46c1.47,0,2.69-.11,3.66-.16V37.73a15.8,15.8,0,0,0-.22-2.75,5.8,5.8,0,0,0-.85-2.26,4.39,4.39,0,0,0-1.74-1.56,6.19,6.19,0,0,0-2.89-.58,7.13,7.13,0,0,0-3.14.58,5.26,5.26,0,0,0-1.88,1.43,5.08,5.08,0,0,0-.93,1.93,8.94,8.94,0,0,0-.26,2.06h-9.18a11.42,11.42,0,0,1,3.83-9q3.82-3.36,11.56-3.37,7.57,0,11.14,3.09t3.57,9.07V64.18h-9ZM241,54q0,4.68,5,4.68a6.87,6.87,0,0,0,3.91-1.07,8,8,0,0,0,2.59-2.79A13.76,13.76,0,0,0,254,51a18.69,18.69,0,0,0,.47-4.06,30,30,0,0,0-4.68.37,18.15,18.15,0,0,0-4.34,1.19,9.05,9.05,0,0,0-3.19,2.17A4.8,4.8,0,0,0,241,54Z" transform="translate(-9.66 -6.27)"/><path class="cls-1" d="M291.56,64.42c-1.3.22-2.6.38-3.87.49s-2.56.17-3.87.17a20.13,20.13,0,0,1-6.46-.86,8.83,8.83,0,0,1-3.78-2.34,7.44,7.44,0,0,1-1.75-3.4,19.36,19.36,0,0,1-.42-4.14V31.49h-5.79V25.08h5.79V16.49l9.44-5.5V25.08h11.38v6.41H280.85V49.91a32.39,32.39,0,0,0,.16,3.32,7.4,7.4,0,0,0,.86,2.82A4.92,4.92,0,0,0,283.78,58a7.1,7.1,0,0,0,3.44.69,11.73,11.73,0,0,0,2.26-.2c.7-.14,1.4-.29,2.08-.45Z" transform="translate(-9.66 -6.27)"/><path class="cls-1" d="M541.6,64.42c-1.3.22-2.59.38-3.86.49s-2.57.17-3.87.17a20.09,20.09,0,0,1-6.46-.86,8.87,8.87,0,0,1-3.79-2.34,7.33,7.33,0,0,1-1.74-3.4,19.34,19.34,0,0,1-.43-4.14V31.49h-5.78V25.08h5.78V16.49l9.44-5.5V25.08h11.39v6.41H530.89V49.91a32.34,32.34,0,0,0,.17,3.32,7.39,7.39,0,0,0,.85,2.82A5,5,0,0,0,533.83,58a7.08,7.08,0,0,0,3.44.69,11.81,11.81,0,0,0,2.26-.2c.7-.14,1.4-.29,2.07-.45Z" transform="translate(-9.66 -6.27)"/><path class="cls-1" d="M319.18,33.38a13.36,13.36,0,0,1-1.28-.62,18.68,18.68,0,0,0-2-.91,21.13,21.13,0,0,0-2.68-.77,13.9,13.9,0,0,0-3-.33A10.46,10.46,0,0,0,308,31a8.63,8.63,0,0,0-2,.7,4.68,4.68,0,0,0-1.49,1.15,2.31,2.31,0,0,0-.6,1.52,3.14,3.14,0,0,0,1.32,2.42,26.45,26.45,0,0,0,3.27,2.3c1.31.8,2.74,1.63,4.3,2.51a26.49,26.49,0,0,1,4.29,3,16.1,16.1,0,0,1,3.28,3.82,9.14,9.14,0,0,1,1.31,4.92,11.37,11.37,0,0,1-1.14,5.26,10,10,0,0,1-3.19,3.65,14.23,14.23,0,0,1-4.85,2.14,25.08,25.08,0,0,1-6.12.7,31.92,31.92,0,0,1-6.72-.57c-1.7-.39-3-.72-4-1V55.63a34.32,34.32,0,0,0,4.72,1.65,21,21,0,0,0,5.57.74c.57,0,1.25-.05,2-.13a10.34,10.34,0,0,0,2.3-.49,5.12,5.12,0,0,0,1.87-1.07,2.38,2.38,0,0,0,.77-1.85,3.1,3.1,0,0,0-1.28-2.26,27.61,27.61,0,0,0-3.23-2.34l-4.21-2.62A31.06,31.06,0,0,1,300,44.13a16.81,16.81,0,0,1-3.23-3.77,8.7,8.7,0,0,1-1.28-4.68,10.05,10.05,0,0,1,4-8.51c2.63-2,6.16-3,10.58-3a24.3,24.3,0,0,1,5.36.54c1.59.36,2.86.67,3.83.95Z" transform="translate(-9.66 -6.27)"/><path class="cls-1" d="M325.13,7.5h9.43V40l13.1-15H359L344,42l16.33,22.18H349L334.73,44.46h-.17V64.18h-9.43Z" transform="translate(-9.66 -6.27)"/><path class="cls-1" d="M382.12,59.66H382a12.4,12.4,0,0,1-1.28,1.93,7.86,7.86,0,0,1-2,1.72,12,12,0,0,1-3.06,1.28,16.12,16.12,0,0,1-4.17.49,13.11,13.11,0,0,1-8.5-2.75,9.15,9.15,0,0,1-3.4-7.52,10.86,10.86,0,0,1,1.28-5.46,11.13,11.13,0,0,1,3.31-3.7,16.91,16.91,0,0,1,4.59-2.25,30.59,30.59,0,0,1,5.06-1.19,44.15,44.15,0,0,1,4.72-.46c1.47,0,2.69-.11,3.66-.16V37.73a16.88,16.88,0,0,0-.21-2.75,6.14,6.14,0,0,0-.85-2.26,4.49,4.49,0,0,0-1.75-1.56,6.19,6.19,0,0,0-2.89-.58,7.23,7.23,0,0,0-3.15.58,5.31,5.31,0,0,0-1.87,1.43,5.08,5.08,0,0,0-.93,1.93,8.94,8.94,0,0,0-.26,2.06H361a11.48,11.48,0,0,1,3.82-9q3.84-3.36,11.57-3.37,7.57,0,11.14,3.09t3.57,9.07V64.18h-9ZM368.68,54q0,4.68,5,4.68a6.87,6.87,0,0,0,3.91-1.07,8.1,8.1,0,0,0,2.6-2.79A13.74,13.74,0,0,0,381.65,51a18.69,18.69,0,0,0,.47-4.06,30.09,30.09,0,0,0-4.68.37,17.94,17.94,0,0,0-4.33,1.19,9,9,0,0,0-3.2,2.17A4.8,4.8,0,0,0,368.68,54Z" transform="translate(-9.66 -6.27)"/><path class="cls-1" d="M412.44,25.08h9.44V30.5h.17a8.24,8.24,0,0,1,1.23-1.93,12,12,0,0,1,2.21-2.09,12.78,12.78,0,0,1,3-1.65,9.9,9.9,0,0,1,3.61-.66,12.68,12.68,0,0,1,6.76,1.65,12,12,0,0,1,4.25,4.48,21.41,21.41,0,0,1,2.26,6.53,43.3,43.3,0,0,1,.68,7.8,37.82,37.82,0,0,1-.81,8,20.52,20.52,0,0,1-2.51,6.48,12.93,12.93,0,0,1-4.34,4.36,13.26,13.26,0,0,1-10.16,1,12.19,12.19,0,0,1-2.89-1.44,9.47,9.47,0,0,1-2-1.85c-.5-.66-.93-1.23-1.27-1.73h-.17V71.71l-9.44,5.61Zm9.44,19.55a36.42,36.42,0,0,0,.34,5.13A15.2,15.2,0,0,0,423.41,54,7.87,7.87,0,0,0,425.58,57,5.15,5.15,0,0,0,428.94,58a5.62,5.62,0,0,0,3.78-1.2,7.43,7.43,0,0,0,2.12-3.08,15.41,15.41,0,0,0,.94-4.27c.14-1.58.21-3.2.21-4.84a44,44,0,0,0-.25-4.68,16.48,16.48,0,0,0-1-4.32,8.4,8.4,0,0,0-2.13-3.16,5.24,5.24,0,0,0-3.65-1.23,4.77,4.77,0,0,0-3.32,1.23,8.83,8.83,0,0,0-2.16,3.16,18.19,18.19,0,0,0-1.2,4.32A28.94,28.94,0,0,0,421.88,44.63Z" transform="translate(-9.66 -6.27)"/><path class="cls-1" d="M467.41,65.08q-8.76,0-13.3-5.38t-4.56-15.07q0-9.69,4.56-15.07t13.3-5.39q8.76,0,13.31,5.39t4.55,15.07q0,9.69-4.55,15.07T467.41,65.08Zm-7.82-20.45c0,1.8.09,3.56.26,5.25A15.06,15.06,0,0,0,461,54.4a7.48,7.48,0,0,0,2.38,3.12,7.81,7.81,0,0,0,8.16,0,7.5,7.5,0,0,0,2.39-3.12,15.37,15.37,0,0,0,1.1-4.52c.17-1.69.25-3.45.25-5.25s-.08-3.56-.25-5.26a15.52,15.52,0,0,0-1.1-4.52,7.63,7.63,0,0,0-2.39-3.12,7.81,7.81,0,0,0-8.16,0A7.61,7.61,0,0,0,461,34.85a15.21,15.21,0,0,0-1.1,4.52C459.68,41.07,459.59,42.82,459.59,44.63Z" transform="translate(-9.66 -6.27)"/><path class="cls-1" d="M489.08,11.81h6.5l5.61,5,5.61-5h6.49l-7.78,9.46h-8.65Zm23.19,21.57a11.43,11.43,0,0,1-1.27-.62,20.85,20.85,0,0,0-2.05-.91,21.13,21.13,0,0,0-2.68-.77,13.83,13.83,0,0,0-3-.33A10.46,10.46,0,0,0,501,31a8.63,8.63,0,0,0-2,.7,4.68,4.68,0,0,0-1.49,1.15,2.31,2.31,0,0,0-.6,1.52,3.14,3.14,0,0,0,1.32,2.42,26.45,26.45,0,0,0,3.27,2.3c1.31.8,2.74,1.63,4.3,2.51a26.93,26.93,0,0,1,4.29,3,16.05,16.05,0,0,1,3.27,3.82,9.15,9.15,0,0,1,1.32,4.92,11.25,11.25,0,0,1-1.15,5.26,9.91,9.91,0,0,1-3.18,3.65,14.23,14.23,0,0,1-4.85,2.14,25.08,25.08,0,0,1-6.12.7,31.92,31.92,0,0,1-6.72-.57c-1.7-.39-3-.72-4-1V55.63a34.32,34.32,0,0,0,4.72,1.65A21,21,0,0,0,499,58c.57,0,1.25-.05,2-.13a10.47,10.47,0,0,0,2.3-.49,5.21,5.21,0,0,0,1.87-1.07,2.37,2.37,0,0,0,.76-1.85,3.09,3.09,0,0,0-1.27-2.26,27.61,27.61,0,0,0-3.23-2.34l-4.21-2.62a31.06,31.06,0,0,1-4.21-3.13,16.31,16.31,0,0,1-3.23-3.77,8.7,8.7,0,0,1-1.28-4.68,10.05,10.05,0,0,1,4-8.51c2.63-2,6.16-3,10.58-3a24.3,24.3,0,0,1,5.36.54c1.59.36,2.86.67,3.83.95Z" transform="translate(-9.66 -6.27)"/><path class="cls-1" d="M566.18,59.66H566a11.65,11.65,0,0,1-1.27,1.93,7.75,7.75,0,0,1-2,1.72,11.91,11.91,0,0,1-3.05,1.28,16.23,16.23,0,0,1-4.17.49,13.09,13.09,0,0,1-8.5-2.75,9.16,9.16,0,0,1-3.41-7.52,11,11,0,0,1,1.28-5.46,11.27,11.27,0,0,1,3.32-3.7,16.91,16.91,0,0,1,4.59-2.25,30.36,30.36,0,0,1,5.06-1.19,43.91,43.91,0,0,1,4.72-.46c1.47,0,2.69-.11,3.65-.16V37.73A16.88,16.88,0,0,0,566,35a6,6,0,0,0-.85-2.26,4.53,4.53,0,0,0-1.74-1.56,6.19,6.19,0,0,0-2.89-.58,7.17,7.17,0,0,0-3.15.58,5.22,5.22,0,0,0-1.87,1.43,5,5,0,0,0-.94,1.93,8.91,8.91,0,0,0-.25,2.06h-9.19a11.45,11.45,0,0,1,3.83-9q3.83-3.36,11.57-3.37,7.56,0,11.14,3.09c2.37,2,3.57,5.08,3.57,9.07V64.18h-9ZM552.75,54q0,4.68,5,4.68a6.87,6.87,0,0,0,3.91-1.07,8.07,8.07,0,0,0,2.59-2.79A14.08,14.08,0,0,0,565.72,51a18.66,18.66,0,0,0,.46-4.06,29.87,29.87,0,0,0-4.67.37,18,18,0,0,0-4.34,1.19A8.87,8.87,0,0,0,554,50.66,4.8,4.8,0,0,0,552.75,54Z" transform="translate(-9.66 -6.27)"/><path class="cls-2" d="M80.88,32.69a4.33,4.33,0,0,1,.89-.09,4.21,4.21,0,0,1,1,8.29A17.26,17.26,0,0,1,68.69,10.13,19.9,19.9,0,0,1,80.18,6.27C95.44,6.1,104.94,19,104.94,32.7a28.34,28.34,0,0,1-2,10.24C98.32,56.17,84.26,66,68.12,66c-12.26,0-23.2-6.46-30.85-15.26C31.65,44.51,24.54,34.19,9.66,7.47h9.66C32.63,31.13,38.91,40,43.58,45.16c6.51,7.51,15.31,12.46,24.5,12.43,13,0,23.7-8.1,27-17.65a20.55,20.55,0,0,0,1.46-7.24c0-10.18-6.8-18.13-16.29-18a11.6,11.6,0,0,0-6.58,2.25,8.84,8.84,0,0,0,5.2,16A8.57,8.57,0,0,0,80.88,32.69Z" transform="translate(-9.66 -6.27)"/><path class="cls-1" d="M51.56,29.55c-2.33-2.71-5.14-7-10.31-16.27L38.08,7.47h9.24l1,1.88C52,15.9,54.3,19.63,56,22Z" transform="translate(-9.66 -6.27)"/><path class="cls-1" d="M24.32,7.47h9.19l.66,1.24C41.85,22.5,46.28,29.31,49.4,33.27l-4.32,7.47c-3.84-4.32-8.77-11.54-18-28.15Z" transform="translate(-9.66 -6.27)"/><path class="cls-1" d="M58.09,18.27l6.25-10.8H51.65C54.56,12.68,56.58,16,58.09,18.27Z" transform="translate(-9.66 -6.27)"/></svg>