<svg id="Layer_1" data-name="Layer 1" xmlns="http://www.w3.org/2000/svg" viewBox="0 0 706.14 106.97"><defs><style>.cls-1{fill:#fff;fill-rule:evenodd;}</style></defs><title>pevec</title><path class="cls-1" d="M385.94,91.06c-1.17,1.88-1.87,3-2.58,4a3.88,3.88,0,0,1-2.81.94A3.18,3.18,0,0,1,378,95c-.47-.7-1.17-2.1-2.34-4l-38-68.48H304.8l47.37,90.29a24.18,24.18,0,0,0,5.16,7,29.31,29.31,0,0,0,9.85,6.8,30.74,30.74,0,0,0,13.6,2.81c5.4,0,10.09-.7,13.84-2.81a25.13,25.13,0,0,0,9.15-6.34,46.7,46.7,0,0,0,5.86-8l48.08-89.82H424.17Z" transform="translate(-19.86 -22.55)"/><path class="cls-1" d="M179.57,24.92a48.25,48.25,0,0,0-9.85,6.57,28,28,0,0,0-7.51,9.15,19.82,19.82,0,0,0-2.81,10.55v50a19.08,19.08,0,0,0,2.81,10.32,30.6,30.6,0,0,0,7.51,9.15c5.86,5.39,15.48,9.14,23.45,8.91h94.51V104.66H199.74a9.82,9.82,0,0,1-7.28-3.52,10.54,10.54,0,0,1-3.28-7.5V88.71H272v-26H189.18V58.46a11.4,11.4,0,0,1,3.28-7.5,9.82,9.82,0,0,1,7.28-3.52h87.94V22.58H193.4A41.06,41.06,0,0,0,179.57,24.92Z" transform="translate(-19.86 -22.55)"/><path class="cls-1" d="M486.09,24.92A44.2,44.2,0,0,0,476,31.49a31.21,31.21,0,0,0-7.5,9.15,22.17,22.17,0,0,0-2.82,10.55v50a21.35,21.35,0,0,0,2.82,10.32,34.49,34.49,0,0,0,7.5,9.15c6.1,5.39,15.48,9.14,23.69,8.91H594.2V104.66H506c-2.58,0-4.93-1.17-7.27-3.52a10.26,10.26,0,0,1-3.05-7.5V88.71h82.55v-26H495.7V58.46a11,11,0,0,1,3.05-7.5c2.34-2.35,4.69-3.52,7.27-3.52H594.2V22.58H499.69A38.47,38.47,0,0,0,486.09,24.92Z" transform="translate(-19.86 -22.55)"/><path class="cls-1" d="M642.51,55.41a19,19,0,0,1,6.33-5.86,13.83,13.83,0,0,1,7.74-2.11H726V22.58H637.12c-3,0-6.8,1.41-11.49,4.22a43.47,43.47,0,0,0-11.73,11A23.27,23.27,0,0,0,609,51.66v46.9a29.3,29.3,0,0,0,3.75,13.61c2.58,4.69,6.81,8.67,12.44,12.19s12.66,5.16,21.1,5.16H726V104.66H655.41a16.07,16.07,0,0,1-8.21-2.34A15.38,15.38,0,0,1,641.81,96a14,14,0,0,1-1.88-6.8V62A10.68,10.68,0,0,1,642.51,55.41Z" transform="translate(-19.86 -22.55)"/><path class="cls-1" d="M124.69,22.58H19.86V129.52H50.34V88.71H127.5c6.8,0,11.49-2.11,14.31-6.09s4.22-9.15,4.22-15V43c0-5.86-1.41-10.79-4.69-14.54C138.05,24.45,132.66,22.58,124.69,22.58ZM113.43,61a5.23,5.23,0,0,1-4,2.11H50.34V47.67h53.48a15.89,15.89,0,0,1,5.63.94,9.39,9.39,0,0,1,4.45,2.58,8.09,8.09,0,0,1,1.64,4.69A7.67,7.67,0,0,1,113.43,61Z" transform="translate(-19.86 -22.55)"/></svg>