<?xml version="1.0" encoding="utf-8"?>
<!-- Generator: Adobe Illustrator 23.0.3, SVG Export Plug-In . SVG Version: 6.00 Build 0)  -->
<svg version="1.1" id="Layer_1" xmlns="http://www.w3.org/2000/svg" xmlns:xlink="http://www.w3.org/1999/xlink" x="0px" y="0px"
	 viewBox="0 0 1012 454.5" style="enable-background:new 0 0 1012 454.5;" xml:space="preserve">
<style type="text/css">
	.st0{fill:#FFFFFF;}
</style>
<title>podravka</title>
<g>
	<path class="st0" d="M447.2,229.5c5.2,0,10.7-1.8,9.9-14.8c0.8-13-4.7-14.7-9.9-14.7c-1.5,0-4.2,0-5.9,0v29.5
		C443,229.5,445.7,229.5,447.2,229.5z"/>
	<path class="st0" d="M416.9,97.3C416.9,97.3,416.9,97.3,416.9,97.3C416.9,97.3,416.9,97.3,416.9,97.3v-0.6c0-0.1,0-0.1,0-0.2
		c-7.4-2.8-14.9-5.1-22.6-6.8c-13.5-3.3-21.5-2.4-28.6-2.2c-7.7,0.2-16.3,1.7-26.7,3.4L51.6,138c-4.5,1.4-8.6,3.9-11.9,7.4
		c-3.3,3.8-5.2,8.6-5.4,13.6v41c0,0,26,5.3,26,40s-27.1,41-27.1,41v35.8c0,0,1.5,10.5,4.8,14.5c4.9,6,13.6,8.6,13.6,8.6l291.3,49.4
		c7.1,1.3,14.4,2,21.7,2.1c12.7,0.2,20.1-0.4,32.5-3.2c14.5-3.3,22.5-6.6,35.9-13.4c11.1-5.6,16.6-10,26.9-17.1
		c11.1-7.6,27.8-20.5,27.8-20.5l10.2-0.3l9.5,0.3c0,0,16.7,12.9,27.8,20.5c10.3,7,15.9,11.5,26.9,17.1c13.4,6.8,21.3,10.2,35.9,13.4
		c12.4,2.8,19.8,3.4,32.5,3.2c7.3-0.1,14.5-0.8,21.7-2.1l291.3-49.4c0,0,8.7-2.6,13.6-8.6c3.3-4,4.8-14.5,4.8-14.5V281
		c0,0-27.1-6.3-27.1-41s26-40,26-40v-41c-0.2-5-2.1-9.8-5.4-13.7c-3.3-3.4-7.4-6-11.9-7.3L656,90.9c-10.4-1.7-19-3.2-26.7-3.4
		c-7.1-0.2-15.1-1.1-28.6,2.2c-8,1.8-15.8,4.2-23.4,7.2c-0.4,5.5-0.7,9.5-1,11.2c-5.4,29.3-26.6,49.2-61.1,57.7
		c-5.5,1.3-11.3,2.5-17,2.3c-5.4-0.3-10.9-0.9-16.2-1.8c-8.6-1.7-13.3-2.6-21.8-6.6c-26.7-12.6-40.8-32.3-43.2-60.2
		C417,98.8,416.9,98.1,416.9,97.3z M156.5,234.6c0,27.2-22.3,26.5-26.8,26.5h-12.9v36.3H94.2V181.7h35.4c4.6,0,26.8-0.7,26.8,26.5
		V234.6z M260.2,271.8c0,16.2-14.2,27-31.8,27s-31.8-10.7-31.8-27v-64.9c0-16.2,14.3-27,31.8-27s31.8,10.7,31.8,27V271.8z
		 M370.6,270.8c0,28.5-27.5,26.6-27.5,26.6h-34.5V181.7h34.5c0,0,27.5-2,27.5,26.5L370.6,270.8z M837,206.9c0-16.2,14.3-27,31.8-27
		s31.8,10.7,31.8,27v90.5h-23.2v-32.6h-17.2v32.6H837V206.9z M731,181.7h22.6v48c1.8,0,4.5,0,5.9,0c5.2,0,9.9-1.8,9.9-16.5v-31.5
		h22.6v32.8c0,21.4-12,22.6-12,22.6s12,2.9,12,26.4v34h-22.6v-33.6c0-14.7-4.7-16.5-9.9-16.5c-1.5,0-4.2,0-5.9,0v50.1H731V181.7z
		 M652.5,181.7l7.2,74.2l1,2.1l0.8-2.1l7.4-74.2h23l-16.5,115.8H646c-1-4.2-16.5-115.8-16.5-115.8H652.5z M526.6,206.9
		c0-16.2,14.3-27,31.8-27s31.8,10.7,31.8,27v90.5H567v-32.6h-17.2v32.6h-23.2V206.9z M418.6,181.7h38.5c7.6,0,23.5,0,23.5,33.2
		c0,20.4-12.9,22.2-12.9,22.2s12,2.9,12,26.4v34h-22.6v-33.6c0-14.7-4.7-16.5-13.1-16.5c-1.5,0-1,0-2.7,0v50.1h-22.6L418.6,181.7z"
		/>
	<path class="st0" d="M416.8,96.2c0,0.1,0,0.2,0,0.2S416.8,96.3,416.8,96.2z"/>
	<path class="st0" d="M122.7,200c-1.5,0-4.2,0-5.9,0v42c1.8,0,4.5,0,5.9,0c5.2,0,10.7-1.8,9.9-14.8v-12.5
		C133.4,201.7,127.9,200,122.7,200z"/>
	<path class="st0" d="M567,207.2c0-4.9-3.8-8.1-8.6-8.1s-8.6,3.2-8.6,7.8v38.5H567L567,207.2z"/>
	<path class="st0" d="M337.1,200c-1.5,0-4.2,0-5.9,0v79c1.8,0,4.5,0,5.9,0c5.2,0,10.7-1.7,9.9-14.7v-49.6
		C347.9,201.7,342.4,200,337.1,200z"/>
	<path class="st0" d="M228.4,199.1c-4.8,0-8.6,3.2-8.6,7.8v64.9c0,4.7,3.8,7.9,8.6,7.9s8.6-3.2,8.6-8.1v-64.3
		C237,202.2,233.1,199.1,228.4,199.1z"/>
	<path class="st0" d="M877.5,207.2c0-4.9-3.8-8.1-8.6-8.1s-8.6,3.2-8.6,7.8v38.5h17.2L877.5,207.2z"/>
	<path class="st0" d="M578.5,73.3c6.7-2.3,13.9-3.9,25.7-5.7c10-1.5,15.6-1.5,26-1.3c9.1,0.2,14,0.5,22.8,2l280.5,49.4l4.2,0.7
		c9.3,1.6,14.8,2.5,22.3,7.6c6.2,4.3,9,7.2,13.2,13.7c5.1,7.9,7.5,12.6,7.5,21.2v47.3c-11.5,2.7-26,11.3-26,31.6
		c0,18.8,14.6,27.9,26,31.2l-0.1,44.6c0.1,10.6-3.8,20.8-11,28.6c-6.8,7.6-15.5,11.5-20.9,12.5L667,409.2
		c-14.4,2.7-22.7,4.1-37.7,4.1c-17.4,0-27.4-1.4-44.7-6.1c-17.6-4.8-26.8-9.5-42.9-18.3s-39.3-26.5-39.6-26.7l-4.3-3.3l-4.3,3.2
		c-0.2,0.2-24,18-40.3,26.8c-17,9.1-25.9,13.7-42.9,18.3c-17.4,4.7-27.5,6.1-44.7,6.1c-14.3,0-22.5-1.3-37.7-4.1L46.4,356.6
		c-5.4-1-14.1-4.9-20.9-12.5c-7.2-7.8-11.1-18-11-28.6c0,0,0-35.3-0.1-44.6c11.4-3.3,26-12.4,26-31.2c0-20.3-14.5-28.9-26-31.6
		v-47.3c0-8.6,2.4-13.3,7.5-21.2c4.2-6.5,7-9.5,13.1-13.7c7.5-5.1,13.1-6.1,22.4-7.6l4.1-0.7L342,68.3c8.6-1.5,13.6-1.8,22.8-2
		c10.4-0.3,16-0.2,26,1.3c11.4,1.7,18.5,3.3,25,5.4c-0.1-2.9-0.2-5.8-0.3-8.6c-0.1-2.4-0.2-4.7-0.3-6.9c-7.3-2-14.8-3.5-22.3-4.5
		c-11.1-1.7-17.5-1.7-28.4-1.5c-9.7,0.2-15.3,0.5-24.9,2.2L59,103.2l-4,0.7c-10,1.7-18,3-28,9.9c-7.7,5.3-12,9.8-17.2,17.9
		C4.3,140.4,0,148.1,0,160.9v60.7l6.9,0.3C8.8,222,26,223.4,26,239.8c0,15.2-18.9,17.8-19.7,17.9L0,258.5l0,6.5l0.1,50.6
		c-0.1,14.3,5.2,28.1,14.8,38.6c7.7,8.6,18.8,15.1,28.9,17l281.6,52.6c16.1,3,24.8,4.3,40.3,4.3c18.5,0,29.8-1.5,48.4-6.5
		c19.3-5.2,29.9-10.9,45.9-19.6c13.1-7,30-19,37.8-24.7c7.7,5.7,24.3,17.7,37.2,24.7c16.6,9,26.9,14.4,45.9,19.5
		c18.5,5,29.8,6.5,48.4,6.5c16.3,0,25.5-1.5,40.3-4.3l281.6-52.6c10.1-1.9,21.2-8.4,28.9-17c9.7-10.5,15-24.2,14.9-38.5V265v-6.5
		l-6.4-0.8c-0.8-0.1-19.6-2.7-19.6-17.9c0-16.4,17.2-17.8,19.1-17.9l6.8-0.4v-7v-53.6c0-12.9-4.3-20.6-9.8-29.3
		c-5.2-8.2-9.4-12.5-17.2-17.8c-10-6.9-17.9-8.2-27.9-9.9l-4.1-0.7L655.5,53.8c-8.2-1.5-16.5-2.2-24.9-2.2
		c-11-0.3-17.4-0.2-28.4,1.5c-7.8,1.1-15.4,2.6-23,4.7L578.5,73.3z"/>
	<path class="st0" d="M421.5,0c0,0,1.4,33.9,2.2,46.1c0.4,5.7,1.5,43.9,2.3,52.6c2.2,26.2,15.4,42.1,37.9,52.7
		c7.5,3.5,11.4,4.3,19.9,5.9c4.9,0.8,9.8,1.4,14.8,1.6c4.8,0.2,10.1-1,14.6-2c27.6-6.7,49-21.8,54.3-50.4
		c1.8-9.6,4.7-105.8,4.7-105.8l-74.4,2.3L421.5,0z M498.2,35.4c1.5-1.6,3-3,4.6-4.4c5.8-4.6,12.9-7.4,20.3-8
		c9.3-0.8,20.1,4.7,25.2,10.4c5.2,5.8,8.3,13.1,9.1,20.8c3.9,37.1-21.9,60.5-43.2,73.7c-4.4,2.7-10.8,7.1-16,8.5L498.2,35.4z
		 M498.2,155.6c-8-0.4-15.9-1.6-23.7-3.6c-8.1-2-35.1-13.3-42.3-37.4c-1.6-5.4-2.6-5.9-3.2-17.1c-1.1-20.9-4-93.7-4-93.7l72.5,2.7
		v27.9c0,0-3.8-3.2-5.5-4.5c-2.6-2.2-5.5-4-8.7-5.5c-5.9-2.3-9.8-2.2-14.2-2.2c-12.4,0-25.9,9.9-30.1,22.6c-2.3,7.8-3,15.9-2.2,23.9
		c3.9,29.9,29.3,53.9,55.7,65.7c3.4,1.5,5.6,2.6,5.6,2.6S498.3,155.6,498.2,155.6z"/>
</g>
</svg>
