<svg id="Logo" xmlns="http://www.w3.org/2000/svg" viewBox="0 0 150 40"><defs><style>.cls-1{fill:#fff;}</style></defs><title>selectio</title><g id="Shape_5_Image-3" data-name="Shape 5 Image"><rect class="cls-1" x="80" y="10" width="10" height="10"/><rect class="cls-1" x="120" width="10" height="10"/><rect class="cls-1" x="100" y="10" width="10" height="10"/><rect class="cls-1" x="140" y="10" width="10" height="10"/><path class="cls-1" d="M0,36.64l2.84-.18a2.12,2.12,0,0,0,.38,1,1.59,1.59,0,0,0,1.32.59,1.44,1.44,0,0,0,1-.3.87.87,0,0,0,.35-.69.89.89,0,0,0-.33-.68A3.85,3.85,0,0,0,4,35.87a6.55,6.55,0,0,1-2.8-1.17,2.35,2.35,0,0,1-.85-1.87,2.59,2.59,0,0,1,.43-1.41,2.91,2.91,0,0,1,1.3-1A6.13,6.13,0,0,1,4.47,30a4.87,4.87,0,0,1,2.83.69,3,3,0,0,1,1.16,2.19l-2.82.17a1.48,1.48,0,0,0-.47-.95,1.51,1.51,0,0,0-1-.3,1.25,1.25,0,0,0-.78.22.67.67,0,0,0-.26.54.54.54,0,0,0,.21.41,2.43,2.43,0,0,0,1,.36,12.24,12.24,0,0,1,2.8.86,2.88,2.88,0,0,1,1.24,1.07,2.75,2.75,0,0,1,.38,1.43,3.06,3.06,0,0,1-.51,1.71,3.14,3.14,0,0,1-1.44,1.19A5.66,5.66,0,0,1,4.49,40a4.79,4.79,0,0,1-3.41-1A3.7,3.7,0,0,1,0,36.64Z"/><path class="cls-1" d="M20.4,30.17h8v2.06h-5v1.54H28v2H23.39v1.9h5.16v2.19H20.4Z"/><path class="cls-1" d="M40.73,30.17h3v7.28h4.67v2.39H40.73Z"/><path class="cls-1" d="M60.57,30.17h8v2.06h-5v1.54h4.65v2H63.56v1.9h5.16v2.19H60.57Z"/><path class="cls-1" d="M86.82,35.88l2.61.79a4.72,4.72,0,0,1-.83,1.84,3.56,3.56,0,0,1-1.41,1.11,5.08,5.08,0,0,1-2.13.38,6.11,6.11,0,0,1-2.58-.46,4.06,4.06,0,0,1-1.73-1.61A5.49,5.49,0,0,1,80,35a5,5,0,0,1,1.27-3.69A4.87,4.87,0,0,1,84.92,30a4.94,4.94,0,0,1,2.87.74A4.32,4.32,0,0,1,89.34,33l-2.64.59a2.24,2.24,0,0,0-.29-.65,1.73,1.73,0,0,0-.61-.53,1.79,1.79,0,0,0-.81-.18,1.76,1.76,0,0,0-1.56.81A3.52,3.52,0,0,0,83,35a3.65,3.65,0,0,0,.49,2.2,1.93,1.93,0,0,0,2.67.12A3.09,3.09,0,0,0,86.82,35.88Z"/><path class="cls-1" d="M100.28,30.17h9.08v2.38h-3v7.29h-3V32.55h-3Z"/><path class="cls-1" d="M123.41,30.17h3v9.66h-3Z"/><path class="cls-1" d="M140,35a5.25,5.25,0,0,1,8.71-3.71A4.88,4.88,0,0,1,150,34.93a6,6,0,0,1-.57,2.78,4.13,4.13,0,0,1-1.65,1.69,5.49,5.49,0,0,1-2.69.6,6.18,6.18,0,0,1-2.71-.52,4.09,4.09,0,0,1-1.73-1.65A5.4,5.4,0,0,1,140,35Zm3,0a3.23,3.23,0,0,0,.54,2.1,2.07,2.07,0,0,0,3,0,3.53,3.53,0,0,0,.53-2.25,3,3,0,0,0-.55-2,1.89,1.89,0,0,0-1.49-.63,1.85,1.85,0,0,0-1.46.64A3.29,3.29,0,0,0,143,35Z"/></g></svg>