<?xml version="1.0" standalone="no"?>
<!DOCTYPE svg PUBLIC "-//W3C//DTD SVG 20010904//EN"
 "http://www.w3.org/TR/2001/REC-SVG-20010904/DTD/svg10.dtd">
<svg version="1.0" xmlns="http://www.w3.org/2000/svg"
 width="260.000000pt" height="260.000000pt" viewBox="0 0 260.000000 260.000000"
 preserveAspectRatio="xMidYMid meet">
<metadata>
Created by potrace 1.11, written by Peter Selinger 2001-2013
</metadata>
<g transform="translate(0.000000,260.000000) scale(0.100000,-0.100000)"
fill="#000000" stroke="none">
<path d="M882 2304 c-341 -60 -611 -266 -756 -575 -63 -134 -87 -237 -92 -394
-5 -143 9 -241 50 -363 111 -325 376 -570 714 -659 125 -33 343 -37 462 -10
402 94 695 386 781 780 63 285 -2 592 -176 822 -166 220 -363 342 -650 400
-60 13 -262 12 -333 -1z m348 -114 c153 -32 312 -113 434 -221 114 -101 222
-284 266 -449 33 -124 33 -313 0 -441 -28 -112 -85 -228 -161 -328 -236 -314
-647 -439 -1019 -308 -90 31 -207 91 -230 117 -3 4 -16 14 -30 23 -55 38 -145
137 -201 221 -276 417 -161 973 257 1252 113 75 232 121 379 147 59 10 229 3
305 -13z"/>
<path d="M1080 1917 c-3 -2 -39 -8 -80 -11 -85 -8 -146 -14 -207 -22 -40 -5
-43 -7 -44 -37 0 -43 0 -1119 0 -1181 l1 -49 96 5 c149 8 170 34 173 213 1 55
3 100 4 101 1 2 31 -3 66 -11 182 -38 287 7 354 153 21 44 22 63 24 312 2 214
0 275 -12 315 -29 95 -88 159 -176 191 -42 15 -189 31 -199 21z"/>
<path d="M2075 2222 c-68 -6 -70 -49 -3 -54 46 -3 64 -23 55 -59 -4 -17 -14
-25 -33 -27 -36 -3 -43 -9 -37 -32 4 -14 14 -20 33 -20 31 0 43 -19 35 -58 -6
-32 -15 -43 -33 -41 -49 4 -63 -1 -60 -23 2 -19 11 -24 48 -28 62 -7 108 8
126 41 18 36 18 89 -1 116 -12 17 -12 23 -1 32 18 15 18 77 1 111 -19 37 -58
50 -130 42z"/>
<path d="M2414 2218 c-60 -15 -69 -36 -69 -170 1 -119 1 -120 28 -144 41 -35
133 -34 171 1 25 23 26 27 26 143 0 101 -3 123 -18 142 -21 26 -91 40 -138 28z
m61 -58 c9 -15 10 -203 1 -218 -11 -18 -34 -15 -40 6 -3 9 -5 55 -5 102 0 47
2 93 5 103 6 19 29 23 39 7z"/>
<path d="M2245 1963 c-9 -7 -11 -31 -7 -70 1 -8 16 -13 37 -13 39 0 55 21 46
60 -5 19 -14 26 -36 28 -17 1 -35 -1 -40 -5z"/>
</g>
</svg>
