<svg width="160" height="160" viewBox="0 0 160 160" fill="none" xmlns="http://www.w3.org/2000/svg">
<circle cx="80" cy="80" r="80" fill="#3ECEE5"/>
<path d="M92.5629 36.9268H88.6899V35.9634C88.6899 35.7079 88.5879 35.4629 88.4063 35.2822C88.2247 35.1015 87.9785 35 87.7217 35C87.4649 35 87.2186 35.1015 87.0371 35.2822C86.8555 35.4629 86.7535 35.7079 86.7535 35.9634V36.9268H72.2299V35.9634C72.2299 35.7079 72.1279 35.4629 71.9463 35.2822C71.7647 35.1015 71.5185 35 71.2617 35C71.0049 35 70.7586 35.1015 70.5771 35.2822C70.3955 35.4629 70.2935 35.7079 70.2935 35.9634V36.9268H66.4205C65.7787 36.9276 65.1635 37.1816 64.7097 37.6332C64.256 38.0848 64.0007 38.697 64 39.3356V61.9767C64.0007 62.6152 64.256 63.2275 64.7097 63.679C65.1635 64.1305 65.7788 64.3845 66.4205 64.3852H92.5629C93.2046 64.3845 93.8199 64.1305 94.2736 63.679C94.7274 63.2275 94.9827 62.6152 94.9834 61.9767V39.3356C94.9827 38.697 94.7274 38.0848 94.2736 37.6332C93.8199 37.1816 93.2046 36.9276 92.5629 36.9268V36.9268ZM66.4205 38.8539H70.2935V39.8173C70.2935 40.0728 70.3955 40.3178 70.5771 40.4985C70.7586 40.6792 71.0049 40.7807 71.2617 40.7807C71.5185 40.7807 71.7647 40.6792 71.9463 40.4985C72.1279 40.3178 72.2299 40.0728 72.2299 39.8173V38.8539H86.7535V39.8173C86.7535 40.0728 86.8555 40.3178 87.0371 40.4985C87.2186 40.6792 87.4649 40.7807 87.7217 40.7807C87.9785 40.7807 88.2247 40.6792 88.4063 40.4985C88.5879 40.3178 88.6899 40.0728 88.6899 39.8173V38.8539H92.5629C92.6909 38.8553 92.8134 38.9065 92.904 38.9965C92.9947 39.0865 93.0463 39.2082 93.048 39.3356V42.7075H65.9364V39.3356C65.9381 39.2083 65.9896 39.0868 66.0801 38.9968C66.1705 38.9068 66.2926 38.8556 66.4205 38.8539V38.8539ZM92.5629 62.4584H66.4205C66.2923 62.457 66.1697 62.4057 66.079 62.3154C65.9883 62.2252 65.9368 62.1032 65.9353 61.9756V44.6342H93.047V61.9763C93.0454 62.1036 92.9939 62.2252 92.9035 62.3153C92.813 62.4054 92.6908 62.4567 92.5629 62.4584V62.4584Z" fill="white" stroke="white" stroke-width="0.5"/>
<path d="M78.039 46.5613H74.6501C74.3828 46.5613 74.166 46.7769 74.166 47.043V49.4517C74.166 49.7178 74.3828 49.9334 74.6501 49.9334H78.039C78.3064 49.9334 78.5231 49.7178 78.5231 49.4517V47.043C78.5231 46.7769 78.3064 46.5613 78.039 46.5613Z" fill="white" stroke="white" stroke-width="0.5"/>
<path d="M84.333 46.5613H80.9441C80.6767 46.5613 80.46 46.7769 80.46 47.043V49.4517C80.46 49.7178 80.6767 49.9334 80.9441 49.9334H84.333C84.6003 49.9334 84.8171 49.7178 84.8171 49.4517V47.043C84.8171 46.7769 84.6003 46.5613 84.333 46.5613Z" fill="white" stroke="white" stroke-width="0.5"/>
<path d="M90.6259 46.5613H87.237C86.9697 46.5613 86.7529 46.7769 86.7529 47.043V49.4517C86.7529 49.7178 86.9697 49.9334 87.237 49.9334H90.6259C90.8933 49.9334 91.11 49.7178 91.11 49.4517V47.043C91.11 46.7769 90.8933 46.5613 90.6259 46.5613Z" fill="white" stroke="white" stroke-width="0.5"/>
<path d="M78.039 51.8604H74.6501C74.3828 51.8604 74.166 52.076 74.166 52.3421V54.7508C74.166 55.0168 74.3828 55.2325 74.6501 55.2325H78.039C78.3064 55.2325 78.5231 55.0168 78.5231 54.7508V52.3421C78.5231 52.076 78.3064 51.8604 78.039 51.8604Z" fill="white" stroke="white" stroke-width="0.5"/>
<path d="M71.746 51.8604H68.3571C68.0898 51.8604 67.873 52.076 67.873 52.3421V54.7508C67.873 55.0168 68.0898 55.2325 68.3571 55.2325H71.746C72.0134 55.2325 72.2301 55.0168 72.2301 54.7508V52.3421C72.2301 52.076 72.0134 51.8604 71.746 51.8604Z" fill="white" stroke="white" stroke-width="0.5"/>
<path d="M84.333 51.8604H80.9441C80.6767 51.8604 80.46 52.076 80.46 52.3421V54.7508C80.46 55.0168 80.6767 55.2325 80.9441 55.2325H84.333C84.6003 55.2325 84.8171 55.0168 84.8171 54.7508V52.3421C84.8171 52.076 84.6003 51.8604 84.333 51.8604Z" fill="white" stroke="white" stroke-width="0.5"/>
<path d="M90.6259 51.8604H87.237C86.9697 51.8604 86.7529 52.076 86.7529 52.3421V54.7508C86.7529 55.0168 86.9697 55.2325 87.237 55.2325H90.6259C90.8933 55.2325 91.11 55.0168 91.11 54.7508V52.3421C91.11 52.076 90.8933 51.8604 90.6259 51.8604Z" fill="white" stroke="white" stroke-width="0.5"/>
<path d="M78.039 57.1594H74.6501C74.3828 57.1594 74.166 57.3751 74.166 57.6411V60.0499C74.166 60.3159 74.3828 60.5316 74.6501 60.5316H78.039C78.3064 60.5316 78.5231 60.3159 78.5231 60.0499V57.6411C78.5231 57.3751 78.3064 57.1594 78.039 57.1594Z" fill="white" stroke="white" stroke-width="0.5"/>
<path d="M71.746 57.1594H68.3571C68.0898 57.1594 67.873 57.3751 67.873 57.6411V60.0499C67.873 60.3159 68.0898 60.5316 68.3571 60.5316H71.746C72.0134 60.5316 72.2301 60.3159 72.2301 60.0499V57.6411C72.2301 57.3751 72.0134 57.1594 71.746 57.1594Z" fill="white" stroke="white" stroke-width="0.5"/>
<path d="M84.333 57.1594H80.9441C80.6767 57.1594 80.46 57.3751 80.46 57.6411V60.0499C80.46 60.3159 80.6767 60.5316 80.9441 60.5316H84.333C84.6003 60.5316 84.8171 60.3159 84.8171 60.0499V57.6411C84.8171 57.3751 84.6003 57.1594 84.333 57.1594Z" fill="white" stroke="white" stroke-width="0.5"/>
<path d="M56.3708 78.7718V93.6438H52.9608V82.1598L49.7708 84.1178L48.2528 81.8078L53.2688 78.7718H56.3708ZM67.3459 85.6578C68.3432 86.1418 69.0839 86.7138 69.5679 87.3738C70.0519 88.0191 70.2939 88.7671 70.2939 89.6178C70.2939 90.4245 70.0592 91.1651 69.5899 91.8398C69.1352 92.4998 68.4679 93.0278 67.5879 93.4238C66.7079 93.8198 65.6739 94.0178 64.4859 94.0178C63.3272 94.0178 62.3152 93.8271 61.4499 93.4458C60.5992 93.0498 59.9465 92.5291 59.4919 91.8838C59.0372 91.2238 58.8099 90.4905 58.8099 89.6838C58.8099 88.0265 59.7339 86.7945 61.5819 85.9878C60.1299 85.1371 59.4039 83.9638 59.4039 82.4678C59.4039 81.6758 59.6239 80.9791 60.0639 80.3778C60.5039 79.7765 61.1125 79.3071 61.8899 78.9698C62.6819 78.6325 63.5765 78.4638 64.5739 78.4638C66.0845 78.4638 67.3165 78.8085 68.2699 79.4978C69.2379 80.1725 69.7219 81.1038 69.7219 82.2918C69.7219 82.9518 69.5239 83.5751 69.1279 84.1618C68.7465 84.7338 68.1525 85.2325 67.3459 85.6578ZM64.5959 80.8178C64.0385 80.8178 63.5912 80.9645 63.2539 81.2578C62.9312 81.5511 62.7699 81.9691 62.7699 82.5118C62.7699 83.0105 62.9092 83.4211 63.1879 83.7438C63.4812 84.0518 63.9432 84.3378 64.5739 84.6018L65.0359 84.7778C65.5345 84.4551 65.8792 84.1178 66.0699 83.7658C66.2605 83.3991 66.3559 82.9665 66.3559 82.4678C66.3559 81.9691 66.2019 81.5731 65.8939 81.2798C65.6005 80.9718 65.1679 80.8178 64.5959 80.8178ZM64.5959 91.5318C65.2999 91.5318 65.8425 91.3558 66.2239 91.0038C66.6199 90.6371 66.8179 90.1678 66.8179 89.5958C66.8179 88.9945 66.6492 88.5251 66.3119 88.1878C65.9745 87.8358 65.3805 87.5058 64.5299 87.1978L63.8039 86.9338C62.8065 87.4911 62.3079 88.3491 62.3079 89.5078C62.3079 90.1238 62.5132 90.6151 62.9239 90.9818C63.3345 91.3485 63.8919 91.5318 64.5959 91.5318ZM73.5951 90.0358C74.1377 90.0358 74.5997 90.2338 74.9811 90.6298C75.3771 91.0111 75.5751 91.4731 75.5751 92.0158C75.5751 92.5731 75.3771 93.0498 74.9811 93.4458C74.5997 93.8271 74.1377 94.0178 73.5951 94.0178C73.0377 94.0178 72.5611 93.8271 72.1651 93.4458C71.7837 93.0498 71.5931 92.5731 71.5931 92.0158C71.5931 91.4731 71.7837 91.0111 72.1651 90.6298C72.5611 90.2338 73.0377 90.0358 73.5951 90.0358ZM87.9069 78.4638C89.7256 78.4638 91.1116 79.1311 92.0649 80.4658C93.0329 81.8005 93.5169 83.7218 93.5169 86.2298C93.5169 88.7231 93.0329 90.6445 92.0649 91.9938C91.1116 93.3431 89.7256 94.0178 87.9069 94.0178C86.0883 94.0178 84.6949 93.3431 83.7269 91.9938C82.7736 90.6445 82.2969 88.7231 82.2969 86.2298C82.2969 83.7218 82.7736 81.8005 83.7269 80.4658C84.6949 79.1311 86.0883 78.4638 87.9069 78.4638ZM87.9069 81.0378C87.4083 81.0378 87.0123 81.1991 86.7189 81.5218C86.4256 81.8445 86.2056 82.3798 86.0589 83.1278C85.9269 83.8758 85.8609 84.9098 85.8609 86.2298C85.8609 87.5498 85.9269 88.5911 86.0589 89.3538C86.2056 90.1018 86.4256 90.6371 86.7189 90.9598C87.0123 91.2825 87.4083 91.4438 87.9069 91.4438C88.4056 91.4438 88.8016 91.2898 89.0949 90.9818C89.3883 90.6591 89.6009 90.1238 89.7329 89.3758C89.8796 88.6131 89.9529 87.5645 89.9529 86.2298C89.9529 84.8951 89.8796 83.8538 89.7329 83.1058C89.6009 82.3431 89.3883 81.8078 89.0949 81.4998C88.8016 81.1918 88.4056 81.0378 87.9069 81.0378ZM101.92 83.6338C102.741 83.6338 103.475 83.8318 104.12 84.2278C104.765 84.6091 105.271 85.1738 105.638 85.9218C106.005 86.6551 106.188 87.5351 106.188 88.5618C106.188 89.5738 105.968 90.4978 105.528 91.3338C105.088 92.1551 104.457 92.8078 103.636 93.2918C102.829 93.7758 101.883 94.0178 100.798 94.0178C98.8914 94.0178 97.4761 93.3798 96.5521 92.1038C95.6281 90.8278 95.1661 89.0751 95.1661 86.8458C95.1661 85.1738 95.4227 83.7071 95.9361 82.4458C96.4641 81.1845 97.2121 80.2091 98.1801 79.5198C99.1627 78.8158 100.314 78.4638 101.634 78.4638C102.91 78.4638 104.039 78.7938 105.022 79.4538L103.746 81.5218C103.086 81.1405 102.411 80.9498 101.722 80.9498C100.886 80.9498 100.211 81.3018 99.6981 82.0058C99.1847 82.7098 98.8767 83.7071 98.7741 84.9978C99.6687 84.0885 100.717 83.6338 101.92 83.6338ZM100.842 91.5318C101.458 91.5318 101.92 91.2751 102.228 90.7618C102.551 90.2338 102.712 89.5151 102.712 88.6058C102.712 87.6818 102.565 87.0218 102.272 86.6258C101.979 86.2298 101.539 86.0318 100.952 86.0318C100.16 86.0318 99.4341 86.4205 98.7741 87.1978C98.8034 88.7671 98.9721 89.8818 99.2801 90.5418C99.5881 91.2018 100.109 91.5318 100.842 91.5318ZM109.388 90.0358C109.931 90.0358 110.393 90.2338 110.774 90.6298C111.17 91.0111 111.368 91.4731 111.368 92.0158C111.368 92.5731 111.17 93.0498 110.774 93.4458C110.393 93.8271 109.931 94.0178 109.388 94.0178C108.831 94.0178 108.354 93.8271 107.958 93.4458C107.577 93.0498 107.386 92.5731 107.386 92.0158C107.386 91.4731 107.577 91.0111 107.958 90.6298C108.354 90.2338 108.831 90.0358 109.388 90.0358ZM48.07 113.584C48.07 114.625 47.8427 115.556 47.388 116.378C46.948 117.199 46.2807 117.844 45.386 118.314C44.4913 118.783 43.3987 119.018 42.108 119.018C40.172 119.018 38.698 118.526 37.686 117.544C36.674 116.561 36.168 115.241 36.168 113.584V103.398H39.776V113.43C39.776 114.412 39.9593 115.146 40.326 115.63C40.7073 116.099 41.3013 116.334 42.108 116.334C42.9293 116.334 43.5233 116.099 43.89 115.63C44.2713 115.146 44.462 114.412 44.462 113.43V103.398H48.07V113.584ZM62.9128 103.772V118.644H59.5028V107.16L56.3128 109.118L54.7948 106.808L59.8108 103.772H62.9128ZM72.3039 108.634C73.1252 108.634 73.8585 108.832 74.5039 109.228C75.1492 109.609 75.6552 110.174 76.0219 110.922C76.3885 111.655 76.5719 112.535 76.5719 113.562C76.5719 114.574 76.3519 115.498 75.9119 116.334C75.4719 117.155 74.8412 117.808 74.0199 118.292C73.2132 118.776 72.2672 119.018 71.1819 119.018C69.2752 119.018 67.8599 118.38 66.9359 117.104C66.0119 115.828 65.5499 114.075 65.5499 111.846C65.5499 110.174 65.8065 108.707 66.3199 107.446C66.8479 106.184 67.5959 105.209 68.5639 104.52C69.5465 103.816 70.6979 103.464 72.0179 103.464C73.2939 103.464 74.4232 103.794 75.4059 104.454L74.1299 106.522C73.4699 106.14 72.7952 105.95 72.1059 105.95C71.2699 105.95 70.5952 106.302 70.0819 107.006C69.5685 107.71 69.2605 108.707 69.1579 109.998C70.0525 109.088 71.1012 108.634 72.3039 108.634ZM71.2259 116.532C71.8419 116.532 72.3039 116.275 72.6119 115.762C72.9345 115.234 73.0959 114.515 73.0959 113.606C73.0959 112.682 72.9492 112.022 72.6559 111.626C72.3625 111.23 71.9225 111.032 71.3359 111.032C70.5439 111.032 69.8179 111.42 69.1579 112.198C69.1872 113.767 69.3559 114.882 69.6639 115.542C69.9719 116.202 70.4925 116.532 71.2259 116.532ZM88.6885 103.024C89.8325 103.024 90.8225 103.185 91.6585 103.508C92.5092 103.83 93.2792 104.322 93.9685 104.982L92.2965 106.94C91.2552 106.089 90.1405 105.664 88.9525 105.664C88.3219 105.664 87.8232 105.796 87.4565 106.06C87.0899 106.309 86.9065 106.676 86.9065 107.16C86.9065 107.497 86.9872 107.776 87.1485 107.996C87.3099 108.201 87.5959 108.399 88.0065 108.59C88.4172 108.78 89.0332 109.008 89.8545 109.272C91.4092 109.77 92.5532 110.386 93.2865 111.12C94.0199 111.838 94.3865 112.865 94.3865 114.2C94.3865 115.153 94.1445 115.996 93.6605 116.73C93.1765 117.448 92.4799 118.013 91.5705 118.424C90.6612 118.82 89.5832 119.018 88.3365 119.018C87.0899 119.018 85.9825 118.82 85.0145 118.424C84.0612 118.028 83.2399 117.5 82.5505 116.84L84.3765 114.838C84.9632 115.336 85.5645 115.71 86.1805 115.96C86.8112 116.209 87.4932 116.334 88.2265 116.334C88.9745 116.334 89.5612 116.172 89.9865 115.85C90.4265 115.512 90.6465 115.05 90.6465 114.464C90.6465 114.082 90.5659 113.767 90.4045 113.518C90.2432 113.254 89.9645 113.019 89.5685 112.814C89.1725 112.608 88.6005 112.388 87.8525 112.154C86.1659 111.64 84.9632 111.01 84.2445 110.262C83.5405 109.514 83.1885 108.568 83.1885 107.424C83.1885 106.544 83.4232 105.774 83.8925 105.114C84.3619 104.439 85.0145 103.926 85.8505 103.574C86.6865 103.207 87.6325 103.024 88.6885 103.024ZM104.295 118.644L103.503 115.366H99.059L98.289 118.644H94.549L99.147 103.398H103.525L108.123 118.644H104.295ZM99.675 112.748H102.887L101.281 106.016L99.675 112.748ZM118.574 103.398L118.222 106.17H114.46V118.644H110.852V106.17H106.914V103.398H118.574ZM123.635 103.398V118.644H120.027V103.398H123.635Z" fill="white"/>
</svg>
