<svg width="160" height="160" viewBox="0 0 160 160" fill="none" xmlns="http://www.w3.org/2000/svg">
<circle cx="80" cy="80" r="80" fill="#3ECEE5"/>
<path d="M13.0023 96.8652V81.6192H22.0883L21.7143 84.1932H16.6103V88.2412H21.0543V90.8152H16.6103V96.8652H13.0023ZM31.841 88.7912C32.853 88.9819 33.6743 89.3559 34.305 89.9132C34.9503 90.4706 35.273 91.3066 35.273 92.4212C35.273 94.0492 34.6863 95.2006 33.513 95.8752C32.3543 96.5352 30.7263 96.8652 28.629 96.8652H23.723V81.6192H28.035C30.1763 81.6192 31.8116 81.9272 32.941 82.5432C34.0703 83.1446 34.635 84.1346 34.635 85.5132C34.635 86.4079 34.3636 87.1339 33.821 87.6912C33.293 88.2339 32.633 88.6006 31.841 88.7912ZM27.331 84.1712V87.7132H28.673C30.1983 87.7132 30.961 87.0972 30.961 85.8652C30.961 85.2492 30.7556 84.8166 30.345 84.5672C29.9343 84.3032 29.2816 84.1712 28.387 84.1712H27.331ZM28.651 94.2472C29.6043 94.2472 30.323 94.1079 30.807 93.8292C31.3056 93.5359 31.555 93.0006 31.555 92.2232C31.555 90.8152 30.675 90.1112 28.915 90.1112H27.331V94.2472H28.651ZM45.9318 85.1832V96.8652H42.4558V85.1832H45.9318ZM44.1718 79.0232C44.7731 79.0232 45.2645 79.2139 45.6458 79.5952C46.0418 79.9619 46.2398 80.4312 46.2398 81.0032C46.2398 81.5752 46.0418 82.0519 45.6458 82.4332C45.2645 82.7999 44.7731 82.9832 44.1718 82.9832C43.5705 82.9832 43.0791 82.7999 42.6978 82.4332C42.3165 82.0519 42.1258 81.5752 42.1258 81.0032C42.1258 80.4312 42.3165 79.9619 42.6978 79.5952C43.0791 79.2139 43.5705 79.0232 44.1718 79.0232ZM65.7435 81.6192L60.8595 91.1452V96.8652H57.2515V91.1672L52.3675 81.6192H56.3055L59.1215 88.3292L61.9375 81.6192H65.7435ZM77.442 81.6192L77.09 84.3912H73.328V96.8652H69.72V84.3912H65.782V81.6192H77.442ZM87.7235 81.6192V96.8652H84.1155V81.6192H87.7235ZM96.4795 81.6192L91.6175 88.4612L96.8755 96.8652H92.6955L87.8335 88.7252L92.6735 81.6192H96.4795ZM106.067 96.8652L105.275 93.5872H100.831L100.061 96.8652H96.3214L100.919 81.6192H105.297L109.895 96.8652H106.067ZM101.447 90.9692H104.659L103.053 84.2372L101.447 90.9692ZM122.762 96.8652H118.164L113.764 85.0512C113.911 86.2099 114.021 87.2366 114.094 88.1312C114.182 89.0112 114.226 90.0599 114.226 91.2772V96.8652H111.014V81.6192H115.502L120.012 93.4552C119.689 91.4459 119.528 89.5539 119.528 87.7792V81.6192H122.762V96.8652ZM133.632 96.8652L132.84 93.5872H128.396L127.626 96.8652H123.886L128.484 81.6192H132.862L137.46 96.8652H133.632ZM129.012 90.9692H132.224L130.618 84.2372L129.012 90.9692ZM142.186 81.6192V94.0052H148.126L147.752 96.8652H138.578V81.6192H142.186ZM52.279 106.685C53.3496 106.685 54.2663 106.876 55.029 107.257C55.8063 107.639 56.393 108.152 56.789 108.797C57.1996 109.443 57.405 110.154 57.405 110.931C57.405 111.723 57.2436 112.479 56.921 113.197C56.5983 113.916 56.0263 114.745 55.205 115.683C54.3836 116.607 53.1883 117.781 51.619 119.203H57.713L57.361 121.865H47.681V119.401C49.485 117.627 50.7976 116.292 51.619 115.397C52.4403 114.488 53.0123 113.733 53.335 113.131C53.6723 112.53 53.841 111.914 53.841 111.283C53.841 110.682 53.665 110.213 53.313 109.875C52.9756 109.523 52.5136 109.347 51.927 109.347C51.399 109.347 50.9296 109.472 50.519 109.721C50.1083 109.956 49.6756 110.345 49.221 110.887L47.175 109.259C47.791 108.453 48.5243 107.822 49.375 107.367C50.2403 106.913 51.2083 106.685 52.279 106.685ZM69.7317 116.057V118.653H68.0597V121.865H64.6717L64.6497 118.653H58.3797V116.343L62.6037 106.619L65.5517 107.719L61.9657 116.057H64.6937L65.0677 112.537H68.0597V116.057H69.7317ZM75.6811 109.809C76.5171 109.809 77.3018 109.934 78.0351 110.183C78.7685 110.433 79.4138 110.785 79.9711 111.239L78.6951 113.197C77.7418 112.596 76.7811 112.295 75.8131 112.295C75.3585 112.295 75.0065 112.376 74.7571 112.537C74.5225 112.684 74.4051 112.897 74.4051 113.175C74.4051 113.395 74.4565 113.579 74.5591 113.725C74.6765 113.857 74.9038 113.997 75.2411 114.143C75.5785 114.29 76.0991 114.466 76.8031 114.671C78.0205 115.023 78.9225 115.485 79.5091 116.057C80.1105 116.615 80.4111 117.392 80.4111 118.389C80.4111 119.181 80.1838 119.871 79.7291 120.457C79.2745 121.029 78.6511 121.469 77.8591 121.777C77.0671 122.085 76.1871 122.239 75.2191 122.239C74.2365 122.239 73.3198 122.085 72.4691 121.777C71.6331 121.469 70.9218 121.044 70.3351 120.501L72.0291 118.609C73.0118 119.372 74.0458 119.753 75.1311 119.753C75.6591 119.753 76.0698 119.658 76.3631 119.467C76.6711 119.277 76.8251 119.005 76.8251 118.653C76.8251 118.375 76.7665 118.155 76.6491 117.993C76.5318 117.832 76.3045 117.685 75.9671 117.553C75.6298 117.407 75.0945 117.231 74.3611 117.025C73.2025 116.688 72.3371 116.219 71.7651 115.617C71.1931 115.016 70.9071 114.268 70.9071 113.373C70.9071 112.699 71.0978 112.097 71.4791 111.569C71.8751 111.027 72.4325 110.601 73.1511 110.293C73.8845 109.971 74.7278 109.809 75.6811 109.809ZM91.271 118.477C91.271 118.917 91.3297 119.24 91.447 119.445C91.579 119.651 91.7844 119.805 92.063 119.907L91.337 122.173C90.6184 122.115 90.0317 121.961 89.577 121.711C89.1224 121.447 88.7704 121.037 88.521 120.479C87.7584 121.653 86.585 122.239 85.001 122.239C83.8424 122.239 82.9184 121.902 82.229 121.227C81.5397 120.553 81.195 119.673 81.195 118.587C81.195 117.311 81.6644 116.336 82.603 115.661C83.5417 114.987 84.8984 114.649 86.673 114.649H87.861V114.143C87.861 113.454 87.7144 112.985 87.421 112.735C87.1277 112.471 86.6144 112.339 85.881 112.339C85.4997 112.339 85.0377 112.398 84.495 112.515C83.9524 112.618 83.395 112.765 82.823 112.955L82.031 110.667C82.7644 110.389 83.5124 110.176 84.275 110.029C85.0524 109.883 85.771 109.809 86.431 109.809C88.103 109.809 89.3277 110.154 90.105 110.843C90.8824 111.533 91.271 112.567 91.271 113.945V118.477ZM86.013 119.753C86.805 119.753 87.421 119.379 87.861 118.631V116.563H87.003C86.211 116.563 85.617 116.703 85.221 116.981C84.8397 117.26 84.649 117.693 84.649 118.279C84.649 118.749 84.7664 119.115 85.001 119.379C85.2504 119.629 85.5877 119.753 86.013 119.753ZM101.366 121.315C100.94 121.609 100.442 121.836 99.8698 121.997C99.3124 122.159 98.7551 122.239 98.1978 122.239C95.6458 122.225 94.3698 120.817 94.3698 118.015V112.603H92.7198V110.183H94.3698V107.653L97.8458 107.257V110.183H100.53L100.156 112.603H97.8458V117.971C97.8458 118.514 97.9338 118.903 98.1098 119.137C98.2858 119.372 98.5644 119.489 98.9458 119.489C99.3418 119.489 99.7598 119.365 100.2 119.115L101.366 121.315ZM111.552 118.477C111.552 118.917 111.611 119.24 111.728 119.445C111.86 119.651 112.066 119.805 112.344 119.907L111.618 122.173C110.9 122.115 110.313 121.961 109.858 121.711C109.404 121.447 109.052 121.037 108.802 120.479C108.04 121.653 106.866 122.239 105.282 122.239C104.124 122.239 103.2 121.902 102.51 121.227C101.821 120.553 101.476 119.673 101.476 118.587C101.476 117.311 101.946 116.336 102.884 115.661C103.823 114.987 105.18 114.649 106.954 114.649H108.142V114.143C108.142 113.454 107.996 112.985 107.702 112.735C107.409 112.471 106.896 112.339 106.162 112.339C105.781 112.339 105.319 112.398 104.776 112.515C104.234 112.618 103.676 112.765 103.104 112.955L102.312 110.667C103.046 110.389 103.794 110.176 104.556 110.029C105.334 109.883 106.052 109.809 106.712 109.809C108.384 109.809 109.609 110.154 110.386 110.843C111.164 111.533 111.552 112.567 111.552 113.945V118.477ZM106.294 119.753C107.086 119.753 107.702 119.379 108.142 118.631V116.563H107.284C106.492 116.563 105.898 116.703 105.502 116.981C105.121 117.26 104.93 117.693 104.93 118.279C104.93 118.749 105.048 119.115 105.282 119.379C105.532 119.629 105.869 119.753 106.294 119.753Z" fill="white"/>
<g clip-path="url(#clip0)">
<path d="M91.2027 62.7179H68.7966C64.4301 62.7179 60.8779 59.1168 60.8779 54.6904V42.3097C60.8779 37.8831 64.4301 34.2817 68.7966 34.2817H91.2027C95.569 34.2817 99.1214 37.8831 99.1214 42.3097V54.692C99.1214 59.1168 95.569 62.7179 91.2027 62.7179ZM68.7966 37.8218C66.3559 37.8218 64.3697 39.8347 64.3697 42.3097V54.692C64.3697 57.1661 66.3552 59.179 68.7966 59.179H91.2027C93.6432 59.179 95.6287 57.1661 95.6287 54.692V42.3097C95.6287 39.8354 93.6432 37.8218 91.2027 37.8218H68.7966Z" fill="white"/>
<path d="M75.4657 56.9085C75.0249 56.9089 74.5919 56.7902 74.2114 56.5646C73.4833 56.132 73.0488 55.3732 73.0488 54.5351V42.4651C73.0488 41.627 73.4835 40.8684 74.2114 40.4357C74.5846 40.2148 75.0081 40.0964 75.4402 40.0919C75.8724 40.0875 76.2982 40.1973 76.6757 40.4104L87.3152 46.4453C88.0593 46.8673 88.5215 47.6547 88.5215 48.5C88.5215 49.3453 88.0593 50.1326 87.3154 50.5547L76.6759 56.5896C76.306 56.799 75.8893 56.9088 75.4657 56.9085V56.9085ZM76.5413 44.3913V52.6089L83.7851 48.4995L76.5413 44.3913Z" fill="white"/>
</g>
<defs>
<clipPath id="clip0">
<rect width="74" height="37" fill="white" transform="translate(43 30)"/>
</clipPath>
</defs>
</svg>
