<svg width="46" height="35" viewBox="0 0 46 35" fill="none" xmlns="http://www.w3.org/2000/svg">
<path d="M36.4753 34.2036H9.52475C4.27267 34.2036 0 29.8721 0 24.5479V9.65617C0 4.33174 4.27267 0 9.52475 0H36.4753C41.7271 0 46 4.33174 46 9.65617V24.5498C46 29.8721 41.7271 34.2036 36.4753 34.2036ZM9.52475 4.25803C6.58906 4.25803 4.19996 6.67917 4.19996 9.65617V24.5498C4.19996 27.5258 6.5882 29.9469 9.52475 29.9469H36.4753C39.4107 29.9469 41.799 27.5258 41.799 24.5498V9.65617C41.799 6.68004 39.4107 4.25803 36.4753 4.25803H9.52475Z" fill="#3ECEE5"/>
<path d="M17.5467 27.2162C17.0165 27.2167 16.4957 27.0739 16.038 26.8026C15.1623 26.2823 14.6396 25.3696 14.6396 24.3615V9.84347C14.6396 8.83538 15.1625 7.92289 16.038 7.40237C16.4869 7.13674 16.9963 6.99425 17.5161 6.98892C18.0359 6.9836 18.548 7.11564 19.0021 7.37202L31.7996 14.6309C32.6945 15.1384 33.2505 16.0856 33.2505 17.1024C33.2505 18.1191 32.6945 19.0661 31.7998 19.5738L19.0023 26.8327C18.5574 27.0846 18.0563 27.2166 17.5467 27.2162V27.2162ZM18.8405 12.1603V22.0446L27.5534 17.1017L18.8405 12.1603Z" fill="#3ECEE5"/>
</svg>
