<?xml version="1.0" encoding="utf-8"?>
<!-- Generator: Adobe Illustrator 23.0.3, SVG Export Plug-In . SVG Version: 6.00 Build 0)  -->
<svg version="1.1" id="Layer_1" xmlns="http://www.w3.org/2000/svg" xmlns:xlink="http://www.w3.org/1999/xlink" x="0px" y="0px"
	 viewBox="0 0 236.1 54.2" style="enable-background:new 0 0 236.1 54.2;" xml:space="preserve">
<style type="text/css">
	.st0{fill:#3ECEE5;}
	.st1{fill:#FFFFFF;}
</style>
<g>
	<g>
		<path class="st0" d="M17.9,1.8C8,1.8,0,9.9,0,19.8c0,9.9,8,17.9,17.9,17.9c9.9,0,17.9-8,17.9-17.9C35.8,9.9,27.8,1.8,17.9,1.8z
			 M23,26.6c0,5.2-0.6,6.6-4.3,6.6h-5.8V6.2h5.5c3.7,0,4.6,1.5,4.6,6.6V26.6z"/>
		<g>
			<path class="st1" d="M16.8,7.5l-3.9-1.3v27.1l4.3-1.1c2.8-0.7,3.2-2.1,3.1-6.4l-0.1-11.7C20.1,9.8,19.5,8.3,16.8,7.5z"/>
		</g>
		<circle class="st0" cx="18.2" cy="18.7" r="0.6"/>
	</g>
	<g>
		<g>
			<path class="st0" d="M218.5,13.3l-3.3-0.3v-1.7h2.3c1.2,0,1.6-0.4,1.6-1.7v-1c0-0.6-0.3-1.2-1-1.2h-1.7V5.5h1.6
				c0.5,0,1-0.2,1-1.2V3.7c0-1.4-0.3-1.7-1.6-1.7h-2.3V0.3l3.3-0.3c2.9,0,4,1.6,4,3.7c0,0.9-0.1,2.5-1.6,2.7
				c1.6,0.2,1.6,2.1,1.6,3.1C222.5,11.7,221.4,13.3,218.5,13.3z"/>
		</g>
		<g>
			<path class="st0" d="M226.5,12.3c0,0.6-0.4,1-1.5,1h-0.2c-1.1,0-1.5-0.4-1.5-1v-1.5c0-0.6,0.5-1,1.5-1h0.2c1.1,0,1.5,0.4,1.5,1
				V12.3z"/>
		</g>
		<g>
			<path class="st0" d="M236.1,9.6c0,2.4-1.4,3.6-4,3.6h-0.6c-2.7,0-4-1.3-4-3.6v-6c0-2.3,1.4-3.6,4-3.6h0.6c2.7,0,4,1.3,4,3.6V9.6z
				 M232.8,3.6c0-1.3-0.2-1.7-1-1.7c-0.7,0-1,0.4-1,1.7v6c0,1.3,0.2,1.7,1,1.7c0.7,0,1-0.4,1-1.7V3.6z"/>
		</g>
	</g>
	<g>
		<path class="st1" d="M81,23.5c0,4.5-2.2,7.4-7.4,7.4h-1.1c-5.3,0-7.4-2.9-7.4-7.4V16c0-4.4,2.2-7.4,7.5-7.4h1.1
			c5.2,0,7.4,3,7.4,7.4V23.5z M74.8,16c0-2.7-0.3-3.5-1.9-3.5c-1.3,0-1.9,0.8-1.9,3.5v7.5c0,2.7,0.5,3.5,1.9,3.5
			c1.5,0,1.9-0.7,1.9-3.5V16z"/>
		<path class="st1" d="M88.3,31l-5-0.7v-3.2h5c1.7,0,2.1-0.4,2.1-3.1v-0.9l-6.8-4.7c0,0-0.4-1.5-0.4-2.7c0-5.1,2.6-7.1,8.3-7.1
			l4.8,0.7v3.2h-4.8c-1.4,0-2,0.4-2,3v0.4l6.8,4.7c0,0,0.3,2.2,0.3,3.2C96.7,28.9,94.3,31,88.3,31z"/>
		<path class="st1" d="M99.3,30.6V2.3c6.1,0,6.1,0,6.1,6.4v22H99.3z"/>
		<path class="st1" d="M124.2,23.5c0,4.5-2.2,7.4-7.4,7.4h-1.1c-5.3,0-7.4-2.9-7.4-7.4V16c0-4.4,2.2-7.4,7.5-7.4h1.1
			c5.2,0,7.4,3,7.4,7.4V23.5z M118,16c0-2.7-0.3-3.5-1.9-3.5c-1.3,0-1.9,0.8-1.9,3.5v7.5c0,2.7,0.5,3.5,1.9,3.5
			c1.5,0,1.9-0.7,1.9-3.5V16z"/>
		<path class="st1" d="M134.1,31c-5.2,0-7.5-3-7.5-7.4V16c0-4.8,2.6-7.4,6.2-7.4l3.7,0.7c0-7,0-7,6-7v27.9L134.1,31z M136.5,12.5
			h-2.2c-1.4,0-1.6,0.8-1.6,3.5v7.6c0,2.7,0.2,3.5,1.6,3.5h2.2V12.5z"/>
		<path class="st1" d="M153,30.9c-5.8,0-7.7-2.9-7.7-7.4v-0.7c0-4.4,1.9-7,6.1-7l3.8,0.6V15c0-1.8-0.5-2.3-3.2-2.3h-5.8V9.5l6.1-0.8
			c7,0,9,2.7,9,7.6v13.8L153,30.9z M155.2,19.3H153c-1.4,0-1.5,0.7-1.5,3.5v0.7c0,2.7,0.2,3.5,1.6,3.5h2.2V19.3z"/>
		<path class="st1" d="M175.7,30.6h-8.9L162.4,9h6.8l2.4,17h0.7l2.2-17h5.5L175.7,30.6z"/>
		<path class="st1" d="M188,30.9c-5.8,0-7.7-2.9-7.7-7.4v-0.7c0-4.4,1.9-7,6.1-7l3.8,0.6V15c0-1.8-0.5-2.3-3.2-2.3h-5.8V9.5l6.1-0.8
			c7,0,9,2.7,9,7.6v13.8L188,30.9z M190.3,19.3H188c-1.4,0-1.5,0.7-1.5,3.5v0.7c0,2.7,0.2,3.5,1.6,3.5h2.2V19.3z"/>
		<path class="st1" d="M207.2,30.9c-3.3,0-8.2,0-8.2-7.4v-7.4c0-7.4,4.9-7.5,8.2-7.5l4,0.6v3.3h-3.9c-2,0-2.2,0.4-2.2,3.5v7.5
			c0,3.1,0.2,3.5,2.2,3.5h3.9v3.3L207.2,30.9z"/>
		<path class="st1" d="M54.7,8.6l-8.5,0.9v28.1c6.1,0,6.1,0,6.1-7.1l3.8,0.7c3.6,0,6.2-2.3,6.2-7.5V16C62.3,11.6,60,8.6,54.7,8.6z
			 M56.2,23.7c0,2.7-0.2,3.5-1.6,3.5h-2.2V12.9h2c1.4,0,1.7,0.8,1.7,3.5V23.7z"/>
	</g>
	<g>
		<path class="st0" d="M83.1,54h-2.8V41.2h2.8V54z M85.8,54l-2.3-6.4v-0.9l2.7-5.6H89l-3.2,5.3L89,54H85.8z"/>
		<path class="st0" d="M97.4,50.6c0,2.4-1.3,3.5-3.7,3.5h-0.6c-2.5,0-3.8-1.2-3.8-3.5v-6.1c0-2.3,1.3-3.5,3.8-3.5h0.6
			c2.5,0,3.8,1.2,3.8,3.5V50.6z M94.6,44.6c0-1.6-0.4-1.9-1.3-1.9c-0.8,0-1.3,0.4-1.3,1.9v6.1c0,1.5,0.5,1.9,1.3,1.9
			c0.9,0,1.3-0.4,1.3-1.9V44.6z"/>
		<path class="st0" d="M104.1,54l-3.2-8.7V54H99V41.2h3.2l3,8.5v-8.5h1.9V54H104.1z"/>
		<path class="st0" d="M111.7,42.7v3.8h2.9v1.6h-2.9V54h-2.8V41.2h6.3l0,1.6H111.7z"/>
		<path class="st0" d="M116.3,54V41.2h6.5v1.6h-3.7v3.8h2.9v1.6h-2.9v4.3h3.7V54H116.3z"/>
		<path class="st0" d="M129.4,54l-2-6v-1h0.4c1.3,0,1.4-0.6,1.4-1.6v-0.9c0-1.4-0.3-1.9-1.4-1.9h-0.9c0,9.9,0,11.3,0,11.3h-2.8
			l0-12.9h4.3c2.5,0,3.8,1.1,3.8,3.4v0.7c0,2.2-0.7,2.9-2.2,3.1c0.7,1.5,2.7,5.7,2.7,5.7H129.4z"/>
		<path class="st0" d="M133.6,54V41.2h6.5v1.6h-3.7v3.8h2.9v1.6h-2.9v4.3h3.7V54H133.6z"/>
		<path class="st0" d="M146.5,54l-3.2-8.7V54h-1.9V41.2h3.2l3,8.5v-8.5h1.9V54H146.5z"/>
		<path class="st0" d="M155.2,54.2c-0.9,0-1.9,0-2.7-0.4c-0.8-0.4-1.5-1.3-1.5-3.1v-6.1c0-3.5,2.5-3.6,4.2-3.6l2.1,0.3v1.4h-2.1
			c-1.3,0-1.4,0.4-1.4,1.9v6.1c0,1.5,0.1,1.8,1.4,1.8h2.1v1.4L155.2,54.2z"/>
		<path class="st0" d="M158.7,54V41.2h2.8V54H158.7z"/>
		<path class="st0" d="M168.1,50.6c0,3.5-2.5,3.6-4.2,3.6l-1.4-0.3v-1.3h1.4c1.3,0,1.4-0.4,1.4-1.9v-9.5h2.8V50.6z"/>
		<path class="st0" d="M174.8,54l-0.4-2.9h-2.9L171,54h-2.4l2.6-12.9h4L178,54H174.8z M173.1,42.6h-0.4l-1,6.9h2.5L173.1,42.6z"/>
	</g>
</g>
</svg>
