<?xml version="1.0" encoding="utf-8"?>
<!-- Generator: Adobe Illustrator 23.0.3, SVG Export Plug-In . SVG Version: 6.00 Build 0)  -->
<svg version="1.1" id="Layer_1" xmlns="http://www.w3.org/2000/svg" xmlns:xlink="http://www.w3.org/1999/xlink" x="0px" y="0px"
	 viewBox="0 0 167.6 134.3" style="enable-background:new 0 0 167.6 134.3;" xml:space="preserve">
<style type="text/css">
	.st0{fill:#FFFFFF;}
	.st1{fill:#3ECEE5;}
	.st2{fill:#606060;}
</style>
<g>
	<path class="st0" d="M67.1,6c33.7,0,61.1,27.4,61.1,61.1s-27.4,61.1-61.1,61.1S6,100.8,6,67.1S33.4,6,67.1,6 M67.1,0
		C30.1,0,0,30.1,0,67.1c0,37.1,30.1,67.1,67.1,67.1s67.1-30.1,67.1-67.1C134.3,30.1,104.2,0,67.1,0L67.1,0z"/>
</g>
<path class="st0" d="M72.5,26.4l-25.2,2.5v83c17.9,0,17.9,0,17.9-21.1l11.3,2.1c10.6,0,18.4-6.9,18.4-22V48.3
	C94.9,35.2,88,26.4,72.5,26.4z M76.8,70.9c0,8.1-0.6,10.4-4.7,10.4h-6.4V38.9h6c4.1,0,5.1,2.3,5.1,10.3V70.9z"/>
<g>
	<g>
		<path class="st1" d="M137.5,28.9l-5.6-0.5v-2.9h3.9c2.1,0,2.7-0.6,2.7-2.9v-1.7c0-0.9-0.5-2-1.8-2h-2.8v-3.3h2.8
			c0.9,0,1.8-0.4,1.8-2.1v-1c0-2.3-0.6-2.8-2.7-2.8h-4v-3l5.6-0.5c5,0,6.9,2.7,6.9,6.4c0,1.6-0.2,4.2-2.7,4.7
			c2.7,0.4,2.7,3.6,2.7,5.4C144.4,26.3,142.4,28.9,137.5,28.9z"/>
		<path class="st1" d="M151.1,27.2c0,1-0.7,1.7-2.6,1.7h-0.4c-1.9,0-2.6-0.6-2.6-1.7v-2.6c0-1,0.8-1.7,2.6-1.7h0.4
			c1.8,0,2.6,0.7,2.6,1.7V27.2z"/>
		<path class="st1" d="M167.6,22.7c0,4.1-2.4,6.2-6.8,6.2h-1c-4.6,0-6.9-2.2-6.9-6.2V12.4c0-3.9,2.3-6.1,6.9-6.1h1
			c4.5,0,6.9,2.2,6.9,6.1V22.7z M161.9,12.4c0-2.3-0.4-2.9-1.8-2.9c-1.2,0-1.8,0.6-1.8,2.9v10.2c0,2.3,0.4,2.9,1.8,2.9
			c1.2,0,1.7-0.6,1.7-2.9V12.4z"/>
	</g>
</g>
<g>
	<path class="st2" d="M70,37.4h-8.4v45.4h8.9c5.7,0,6.6-2.5,6.6-11.1V48.4C77.1,39.9,75.7,37.4,70,37.4z"/>
	<g>
		<path class="st1" d="M67.6,39.5l-6.1-2.1v45.4l6.7-1.9c4.3-1.2,4.9-3.5,4.8-10.8l-0.2-19.6C72.7,43.4,71.7,41,67.6,39.5z"/>
	</g>
	<ellipse class="st0" cx="69.6" cy="59" rx="1" ry="0.7"/>
</g>
</svg>
