<svg xmlns="http://www.w3.org/2000/svg" xmlns:xlink="http://www.w3.org/1999/xlink" viewBox="0 0 1000.81 1043.12"><defs><style>.cls-1{fill:url(#linear-gradient);}</style><linearGradient id="linear-gradient" x1="-2108.94" y1="127.98" x2="-1491.84" y2="837.04" gradientTransform="matrix(-0.98, 0.18, 0.18, 0.98, -1262.15, 182)" gradientUnits="userSpaceOnUse"><stop offset="0" stop-color="#3ecee5" stop-opacity="0"/><stop offset="0.14" stop-color="#3ecee5" stop-opacity="0.02"/><stop offset="0.27" stop-color="#3ecee5" stop-opacity="0.07"/><stop offset="0.4" stop-color="#3ecee5" stop-opacity="0.15"/><stop offset="0.53" stop-color="#3ecee5" stop-opacity="0.27"/><stop offset="0.66" stop-color="#3ecee5" stop-opacity="0.43"/><stop offset="0.79" stop-color="#3ecee5" stop-opacity="0.62"/><stop offset="0.92" stop-color="#3ecee5" stop-opacity="0.84"/><stop offset="1" stop-color="#3ecee5"/></linearGradient></defs><title>mreza33_1</title><g id="Layer_2" data-name="Layer 2"><g id="Layer_1-2" data-name="Layer 1"><path class="cls-1" d="M91,388a11.55,11.55,0,0,0,15-6.29l153,53.66a14.83,14.83,0,0,0,22.09,17l68.12,100.08a12,12,0,1,0,18.67,13l91.47,23a11.22,11.22,0,0,0-.21,2,10.23,10.23,0,0,0,20.45,0h0a9.47,9.47,0,0,0-.34-2.49l123-38.35a10.75,10.75,0,0,0,2.47,3.9,10.59,10.59,0,0,0,15,0l85,77.41a11.12,11.12,0,0,0,12.06,17.69l50.07,131a11,11,0,0,0,4.44,21.07,10.39,10.39,0,0,0,1.67-.17l14.57,70.36a12.07,12.07,0,0,0-2.73,1.06,12.21,12.21,0,1,0,11.53,21.53l78.08,130.89a10.3,10.3,0,1,0,16,8.54h0v0a10.29,10.29,0,0,0-10.32-10.25,12.36,12.36,0,0,0-1.35.14L848.88,864.42a13.73,13.73,0,0,0,4.5-1.93l63.7,89.13a10.58,10.58,0,1,0,17,9.67l66.7,5.56v-1.08l-66.58-5.54a2.09,2.09,0,0,0,0-.36h0a10.39,10.39,0,0,0-4.54-8.64l28.46-45.52a11.85,11.85,0,0,0,15.92-4L1000.65,917h0V915.8l-26-15a11.82,11.82,0,0,0,1.35-5.49h0a4.65,4.65,0,0,0-.05-.92l24.64-3.11v-1.07l-24.76,3.12a12,12,0,0,0-4.91-7.75l29.52-46.46v-1.95L970,885.09a11.91,11.91,0,0,0-5.3-1.57L966,714a13.09,13.09,0,0,0,5.55-1.43l28.62,51h0v-2.19l-26.38-47L972.48,712a13.07,13.07,0,0,0,4.09-4l23.49,14.17h0V721l-22.88-13.83a13,13,0,0,0,1.63-6.41h0a13,13,0,0,0-9.1-12.43l30-105.87v-3.86h0L968.67,688a12.64,12.64,0,0,0-8.7.89L899.43,573.63,859,496.54a12.72,12.72,0,0,0,5.42-6.29L999.53,537h0v-1.12L864.69,489.2a12.78,12.78,0,0,0,.55-3.63h0a12.39,12.39,0,0,0-6.78-11.1l56.82-119.56A12.55,12.55,0,0,0,925,355l74.5,161.64v-2.56l-18.24-39.63L926,354.44a12.61,12.61,0,0,0,6.84-11.18h0a12.31,12.31,0,0,0-.23-2.18l66.32-14.8h0v-1.09h0l-66.57,14.86a12.34,12.34,0,0,0-7.49-8.44l14.28-41.27a14.15,14.15,0,0,0,16.56-6.77l43.16,21.54h0v-1.19l-42.74-21.29a14.15,14.15,0,0,0,1.32-5.9h0a14.13,14.13,0,0,0-2-7.14l43.2-27.7h0v-1.26l-43.74,28.05a12.74,12.74,0,0,0-1.64-1.95,13.9,13.9,0,0,0-3.62-2.56l10.52-23,38.22-83.39v-2.53L948.64,263.68a14,14,0,0,0-5.45-1.08l-.79,0L929.55,129a11.21,11.21,0,0,0,9.14-7.92l59.62,14.57v-1.1L939,120.06a11.14,11.14,0,0,0,.21-2.16h0a11.24,11.24,0,0,0-8.12-10.7L956.81,0h-1.1L930.08,106.91a10.91,10.91,0,0,0-2.13-.21,11.11,11.11,0,0,0-5.88,1.72L847.77.26h-1.29L921.15,109a11.31,11.31,0,0,0-3.79,5.2L761.87,67.55a12.24,12.24,0,0,0,.39-3h0a12.11,12.11,0,0,0-2.33-7.13l24-18.92L832.17.34h-1.73L759.31,56.57a12.43,12.43,0,0,0-4.59-3.32L773.87.52h-1.13l-19,52.36a12.19,12.19,0,0,0-9.39.86L731.69,32.13,713.31.7h-1.24L721.63,17l21.78,37.25A12.44,12.44,0,0,0,741.33,56a12.16,12.16,0,0,0,5.15,20.28l-6.17,23.83-.14.52a15,15,0,0,0-3.21-.35,14.49,14.49,0,0,0-4.83.89L692.81.8h-1.14l39.46,100.71a14.74,14.74,0,0,0-3.44,25l-36.64,48.44a12.42,12.42,0,0,0-7.14-2.23,6.11,6.11,0,0,0-.86,0L663.22.89h-1.08L682,172.82a12.54,12.54,0,0,0-4.32,1.53l-21.58-33.64L566.67,1.19H565.4L666.93,159.6,676.77,175a12.58,12.58,0,0,0-4.78,6.61l-202-51.78a12.34,12.34,0,0,0,.31-2.78h0a13.11,13.11,0,0,0-7.76-12L509.43,1.33h-1.16L482.79,63.08l-21.3,51.59a13.49,13.49,0,0,0-3.37-.76L463.86,1.5H462.8l-5.68,112.25-.18,0a13.15,13.15,0,0,0-6.48,1.73L400.8,35.08a11.28,11.28,0,0,0,4.91-9.32h0a11.24,11.24,0,0,0-4-8.56l3.42-4.47,8.46-11.08h-1.34L400.82,16.54a10.47,10.47,0,0,0-1-.6l6.94-14.26h-1.18l-6.71,13.76a11.14,11.14,0,0,0-12.77,2.79L366.27,1.79H364.6L385.44,19a11.19,11.19,0,0,0,7.29,17.88L384.62,114c-.37,0-.7-.09-1-.08a13.72,13.72,0,0,0-5.72,1.24L322,1.83h-1.19l41.44,83.88L377,115.55a14.16,14.16,0,0,0-7.38,12L55.91,130.47a11.24,11.24,0,0,0-2.06-6l77-59.77L211.41,2.27h-1.74L132.09,62.46,53.18,123.67c-.21-.24-.38-.5-.61-.72a11.25,11.25,0,0,0-2.17-1.64L114.77,2.56h-1.22L49.46,120.81a11.2,11.2,0,0,0-12.3,1.51L21.69,105.25a12.72,12.72,0,0,0,3.78-9h0a12.72,12.72,0,0,0-4.88-9.94L81,2.66H79.69l-60,83a12.72,12.72,0,0,0-7-2.12L9.38,2.88H8.31L11.69,83.6A12.73,12.73,0,1,0,20.91,106l15.46,17a11.51,11.51,0,0,0,8.17,19.67,13,13,0,0,0,1.76-.18L92.52,366.23A11.45,11.45,0,0,0,91,388ZM393.85,37.05a2.72,2.72,0,0,0,.69.06A11.19,11.19,0,0,0,400,35.65l47.83,77.52,1.81,2.93a13.3,13.3,0,0,0-5.85,10.65l-45.95.57a14,14,0,0,0-12.09-13.21l1.27-12ZM737.06,129.8a14.45,14.45,0,0,0,6.33-1.47l35.3,67.24,21.72,41.27a11.08,11.08,0,0,0-4,4.09l-101-50.67a12.24,12.24,0,0,0,1.09-5.12h0a12.48,12.48,0,0,0-4.54-9.6l36.64-48.43A14.65,14.65,0,0,0,737.06,129.8ZM612.22,535.19a3.57,3.57,0,0,0-.74.07L597.75,424.72a12.26,12.26,0,0,0,1.7-.37l35.16,105.49a11.14,11.14,0,0,0-7.1,10.34,11.81,11.81,0,0,0,.19,1.78l-5.21,1.12A10.64,10.64,0,0,0,612.22,535.19ZM456.62,140.38l.9,54.26a10,10,0,0,0-6,2.5l-57.71-59.4a14.08,14.08,0,0,0,3.9-9.38l45.95-.58A13.32,13.32,0,0,0,456.62,140.38Zm226.3,57.26-9.33,230.21h0a13.47,13.47,0,0,0-12.28,8.07l-52.52-20.54a14.35,14.35,0,0,0,.8-4.63h0a14,14,0,0,0-4.16-10,14.28,14.28,0,0,0-4.31-2.9L679.88,197A11.79,11.79,0,0,0,682.92,197.64ZM608.43,416.43,661,437a13.37,13.37,0,0,0,7.7,16.88L641.8,529.58a9.86,9.86,0,0,0-6.17-.06L600.45,424A14.16,14.16,0,0,0,608.43,416.43ZM494.34,285a14.24,14.24,0,0,0-7.84,12.75,10.14,10.14,0,0,0,.06,1.1L347.65,315.29A10.89,10.89,0,0,0,345.2,310l105.93-97.94a10.21,10.21,0,0,0,7.15,2.9,10,10,0,0,0,3.7-.74L494.34,285ZM341.81,326.93a11.06,11.06,0,0,0,6.05-9.89h0a3,3,0,0,0-.07-.73L486.7,299.89a14.14,14.14,0,0,0,4,7.89,9.56,9.56,0,0,0,1,.83l-24.29,31.64L398.57,429.9a10.63,10.63,0,0,0-6.14-1.92,10.31,10.31,0,0,0-3.92.78L341.82,326.93ZM403,436.73a10.76,10.76,0,0,0-3.62-6.17l93.09-121.29a14.07,14.07,0,0,0,16.95-.33L586,400.34a14.13,14.13,0,0,0-4.67,10.49,12.21,12.21,0,0,0,.07,1.35L450.05,430.27Zm239.78,93.15,26.86-75.71a13.3,13.3,0,0,0,4,.65,13.46,13.46,0,0,0,3.4-.46l4.25,13.78A10.21,10.21,0,0,0,677.62,485c.23.22.49.39.74.59l-33.58,45.35A11.19,11.19,0,0,0,642.82,529.88ZM695,478.73l24.09,1.14,120.86,5.68a.36.36,0,0,1,0,.1,12.55,12.55,0,0,0,3.73,8.92L720.4,629.33a11.06,11.06,0,0,0-7.15-2.62,9.35,9.35,0,0,0-1.39.14L687.15,487.68A10.22,10.22,0,0,0,695,478.73Zm145.22,4.36a13.25,13.25,0,0,0-.19,1.39l-144.93-6.81a10.25,10.25,0,0,0-10.27-10.19,9.73,9.73,0,0,0-2.46.34l-4.24-13.77a13.55,13.55,0,0,0,8.46-8.94l3.37.83ZM673.61,192.21a12.69,12.69,0,0,0,5.32,4.44l-13.15,33.51L600.13,397.53a13.8,13.8,0,0,0-13.27,2.15l-76.61-91.46A14.16,14.16,0,0,0,515,297.67h0a14.21,14.21,0,0,0-1.85-6.94l135.47-83.19ZM383.68,142.15a14,14,0,0,0,9.4-3.66l57.71,59.39a10.11,10.11,0,0,0-2.74,6.93,10,10,0,0,0,2.4,6.46l-106,97.94a11,11,0,0,0-4.56-2.68l40.85-164.69A15.1,15.1,0,0,0,383.68,142.15Zm412.2,99.76a10.92,10.92,0,0,0,3.47,13.33L680.77,430a13.26,13.26,0,0,0-6-1.95L684,197.65h0a12.52,12.52,0,0,0,10.88-6.43l43.83,22Zm-321,339.76a10,10,0,0,0-9.55-.69L397.84,448a10.72,10.72,0,0,0,5.41-9.29h0a3.79,3.79,0,0,0-.09-.89l178.45-24.53a13.94,13.94,0,0,0,3.94,7.56A18.06,18.06,0,0,0,587,422L474.84,581.67Zm249.61,56.2h0a11.07,11.07,0,0,0-3.27-7.85L844.5,495.25a13.6,13.6,0,0,0,2.39,1.59l-72,157.83a13.43,13.43,0,0,0-16.77,5.82l-34.7-17.93A11.07,11.07,0,0,0,724.49,637.87ZM849.67,473.31a12.72,12.72,0,0,0-9.2,8.75L686.83,444a13.7,13.7,0,0,0,.28-2.71h0a13.36,13.36,0,0,0-4-9.51,13.93,13.93,0,0,0-1.52-1.24l94.24-138.8,24.37-35.9a10.9,10.9,0,0,0,5.8,1.64,10.06,10.06,0,0,0,1.55-.16l39.83,204.37ZM673,191.26,512.59,289.82a14.2,14.2,0,0,0-17.24-5.26L463,213.76a10.22,10.22,0,0,0,5.47-9h0l-.06-.31,203.17-17.63A12.43,12.43,0,0,0,673,191.26ZM332.11,327.18a10.75,10.75,0,0,0,8.73.23l46.7,101.82a10.7,10.7,0,0,0-5.77,9.06l-93.65.86a14.76,14.76,0,0,0-4.35-9.88,15.51,15.51,0,0,0-3.19-2.4l51.56-99.66ZM649.7,540.12h0a11,11,0,0,0-3.27-7.83,10.7,10.7,0,0,0-.83-.68l33.58-45.35a10.14,10.14,0,0,0,5.7,1.7,8.27,8.27,0,0,0,1.21-.12L710.81,627a11.3,11.3,0,0,0-3.88,1.73l-61.2-80.14A11,11,0,0,0,649.7,540.12ZM775.44,679.37A13.5,13.5,0,0,0,783,670l4.33.74,165.26,28.45a17,17,0,0,0-.12,1.74A13.15,13.15,0,0,0,957,710.8L854,839.88a13.64,13.64,0,0,0-8.2-2.74A13.91,13.91,0,0,0,841,838L798.7,735.61Zm148.37-348a12.23,12.23,0,0,0-12.8,3.49l-96.26-81.69a11,11,0,0,0,1.91-3.83l112.65,24.94a13.92,13.92,0,0,0-.24,2.58,14.16,14.16,0,0,0,9,13.15L923.8,331.34Zm5.72-58.13-112.63-25a10.67,10.67,0,0,0,.18-1.87h0a11,11,0,0,0-3.1-7.62L920.67,126.48a11.1,11.1,0,0,0,7.35,2.77l.5-.09,12.82,133.59A14.22,14.22,0,0,0,929.53,273.2ZM916.72,118a11.11,11.11,0,0,0,3.15,7.73L813.19,238a10.68,10.68,0,0,0-10-2.34L792.87,202,754.14,76.11a12.34,12.34,0,0,0,7.46-7.48l155.49,46.62a11.45,11.45,0,0,0-.37,2.74Zm-537,23.59L338.89,306.23a11.45,11.45,0,0,0-2.19-.21,11,11,0,0,0-9,4.71L54.41,136.84a11.23,11.23,0,0,0,1.53-5.27l313.56-2.89A14.14,14.14,0,0,0,379.75,141.58ZM288.13,440.19l93.67-.84a10.73,10.73,0,0,0,7.18,9.49l-11,37.74-18.63,63.8a11.59,11.59,0,0,0-9.14,1.45l-68.11-100.1A14.84,14.84,0,0,0,288.13,440.19ZM368.46,562a12,12,0,0,0-8.13-11.33l6.66-22.8,23-78.72a10.7,10.7,0,0,0,2.53.33,10.88,10.88,0,0,0,4.34-1l67.49,133a10.22,10.22,0,0,0-4.65,5.83l-91.5-23a12.27,12.27,0,0,0,.25-2.42h0ZM770.51,680.41a13.17,13.17,0,0,0,3.92-.81L835.35,827,840,838.35a13.8,13.8,0,0,0-4.53,3.37L780,796.08a11,11,0,0,0,2.22-6.51h0a10.94,10.94,0,0,0-10.59-10.94l-.24-20ZM963.65,883.49a11.94,11.94,0,0,0-10.51,7.21l-67.83-25.51-26.41-9.91a13.79,13.79,0,0,0,.72-4.36h0a13.75,13.75,0,0,0-4.07-9.76c-.24-.23-.51-.4-.76-.61l103-129.08A13.16,13.16,0,0,0,965,714l-1.2,154.17ZM959,689.39a13.22,13.22,0,0,0-6.3,8.64L783.14,668.84a12.92,12.92,0,0,0,.14-1.76h0a13.19,13.19,0,0,0-7.42-11.92l72-157.8a12.6,12.6,0,0,0,10.16-.29l59.61,113.51ZM857.55,474a12.53,12.53,0,0,0-5-1,10.62,10.62,0,0,0-1.86.16L808.63,257.17a11.14,11.14,0,0,0,5.48-3.23l96.25,81.68a12.1,12.1,0,0,0-1.24,1.92,12.52,12.52,0,0,0,5.27,16.9l-20.82,43.74Zm-110-397.44a11.83,11.83,0,0,0,5.64-.13L802.27,236c-.34.12-.65.23-.95.36L785,205.17l-40.62-77.38a14.76,14.76,0,0,0,7.43-12.8h0a14.77,14.77,0,0,0-10.55-14.1l2.93-11.31ZM671.77,182.65a13.45,13.45,0,0,0-.28,2.61,1.44,1.44,0,0,0,0,.51l-57.4,5L468.34,203.36a10.17,10.17,0,0,0-9.7-8.76l-.9-54.26a13.33,13.33,0,0,0,12-9.45l175,44.81ZM47.31,142.27a11.57,11.57,0,0,0,6.56-4.51L327.14,311.64a10.71,10.71,0,0,0-1.29,7.65L106.33,374a11.51,11.51,0,0,0-11-8.24,10.41,10.41,0,0,0-1.77.18L47.31,142.27Zm59,238.32a11.57,11.57,0,0,0,.54-3.3h0a11.89,11.89,0,0,0-.24-2.23l153.8-38.37,65.71-16.4a10.51,10.51,0,0,0,5,6.38l-22.49,43.5-29.06,56.19a10.53,10.53,0,0,0-1-.45,14.78,14.78,0,0,0-19.13,8.46ZM479,586.83a10.19,10.19,0,0,0-3.29-4.48l112.11-159.7a14.19,14.19,0,0,0,7.72,2.28,5.61,5.61,0,0,0,1.16-.07l13.72,110.52c-.37.06-.73.14-1.09.23A10.48,10.48,0,0,0,602,548.47Zm141.48-34.22a10.63,10.63,0,0,0,2.47-6.74h0a9.38,9.38,0,0,0-.18-1.67l5.22-1.13a11.07,11.07,0,0,0,10.66,8.21,10.87,10.87,0,0,0,6.26-2l61.14,80,.06.09c-.23.2-.5.38-.72.6Zm97.29,95.54a11.17,11.17,0,0,0,5.16-4.66l34.72,17.94a13.61,13.61,0,0,0-1.29,5.43,13.38,13.38,0,0,0,13.08,13.68l.84,71.76.31,26.38a11.28,11.28,0,0,0-2.76.5ZM774,800.2a10.84,10.84,0,0,0,5.37-3.25l46.09,37.92,9.39,7.73A13.77,13.77,0,0,0,832,851a13.61,13.61,0,0,0,1.58,6.35l-32.75,18.75a11.69,11.69,0,0,0-1.69-2.15,12.16,12.16,0,0,0-8.66-3.55,11.12,11.12,0,0,0-1.91.17Zm103.71,222.65a9.87,9.87,0,0,0-2.35.91l-78.11-131a12.23,12.23,0,0,0,5.52-10.17h0a12.06,12.06,0,0,0-1.41-5.55l9.2-5.27,23.56-13.49a13.77,13.77,0,0,0,11.74,6.5,14.84,14.84,0,0,0,2-.16Zm-23.4-161a13.89,13.89,0,0,0,4.25-5.6l94.24,35.4a11.78,11.78,0,0,0-.6,3.72,11.94,11.94,0,0,0,5.15,9.77L934,942.39l-5.18,8.28A10.34,10.34,0,0,0,918,951Z"/></g></g></svg>