<svg width="351" height="941" viewBox="0 0 351 941" fill="none" xmlns="http://www.w3.org/2000/svg">
<path d="M334.337 292.624C332.719 293.143 330.984 293.168 329.351 292.699C327.718 292.229 326.261 291.285 325.166 289.986L229.641 363.212C230.645 364.622 231.303 366.249 231.561 367.961C231.819 369.673 231.671 371.421 231.127 373.065C230.584 374.708 229.661 376.201 228.433 377.421C227.206 378.642 225.708 379.556 224.061 380.09C222.106 380.718 220.015 380.785 218.024 380.283L193.121 466.56C194.455 467.009 195.663 467.768 196.646 468.775C197.629 469.782 198.359 471.008 198.776 472.352C199.192 473.696 199.284 475.12 199.043 476.507C198.802 477.893 198.235 479.203 197.389 480.327C196.543 481.452 195.443 482.36 194.177 482.976C192.912 483.592 191.519 483.899 190.112 483.871C188.705 483.844 187.324 483.482 186.084 482.817C184.844 482.152 183.78 481.202 182.979 480.045L123.8 517.346C124.044 517.78 124.247 518.235 124.405 518.706C124.954 520.598 124.746 522.629 123.824 524.371C122.903 526.112 121.341 527.426 119.468 528.037C117.595 528.647 115.558 528.506 113.787 527.642C112.017 526.778 110.652 525.259 109.98 523.407V523.407C109.792 522.812 109.681 522.194 109.65 521.57L14.0911 522.955C14.0496 524.275 13.6758 525.563 13.0043 526.701C12.3327 527.838 11.3852 528.787 10.2493 529.461C9.11341 530.135 7.82591 530.511 6.50593 530.556C5.18596 530.6 3.87616 530.31 2.69777 529.714L-39.3132 603.921C-37.9782 604.758 -36.9097 605.959 -36.2332 607.383C-35.5568 608.806 -35.3004 610.393 -35.4941 611.957C-35.6879 613.521 -36.3237 614.998 -37.3271 616.213C-38.3304 617.428 -39.6596 618.332 -41.1587 618.819C-41.9907 619.078 -42.8592 619.2 -43.7304 619.18L-48.7607 723.123C-47.4366 723.248 -46.1632 723.695 -45.0518 724.426C-43.9404 725.156 -43.0248 726.148 -42.3852 727.314C-41.7456 728.48 -41.4013 729.786 -41.3825 731.115C-41.3637 732.445 -41.6709 733.76 -42.2773 734.943C-42.7576 735.908 -43.4248 736.767 -44.2402 737.47C-45.0555 738.174 -46.0027 738.709 -47.0266 739.043C-47.4246 739.159 -47.8304 739.246 -48.2408 739.303L-42.264 792.267C-40.0585 792.117 -37.874 792.778 -36.1221 794.126C-34.3701 795.474 -33.1716 797.416 -32.7522 799.587C-32.3327 801.757 -32.7214 804.006 -33.8449 805.91C-34.9685 807.814 -36.7494 809.241 -38.8522 809.923C-40.2696 810.386 -41.78 810.489 -43.2471 810.222L-68.0841 920.469C-66.8193 920.831 -65.6696 921.514 -64.7465 922.451C-63.8234 923.388 -63.1583 924.548 -62.8158 925.818C-62.4732 927.088 -62.4649 928.425 -62.7916 929.7C-63.1182 930.974 -63.7688 932.142 -64.6801 933.091C-65.5915 934.04 -66.7326 934.737 -67.9928 935.114C-69.2529 935.492 -70.5893 935.537 -71.8721 935.246C-73.155 934.955 -74.3407 934.337 -75.3143 933.452C-76.2879 932.567 -77.0162 931.446 -77.4285 930.197V930.197C-78.0529 928.273 -77.8892 926.18 -76.9733 924.377C-76.0574 922.574 -74.4639 921.208 -72.5423 920.578C-72.2122 920.487 -71.8772 920.414 -71.5389 920.361L-87.0171 801.893C-88.236 802.002 -89.4646 801.895 -90.6462 801.576L-114.978 879.137C-113.77 879.577 -112.688 880.309 -111.83 881.266C-110.971 882.223 -110.36 883.376 -110.052 884.625C-109.744 885.874 -109.748 887.179 -110.063 888.426C-110.379 889.672 -110.996 890.822 -111.86 891.774C-112.725 892.727 -113.81 893.451 -115.021 893.885C-116.231 894.319 -117.53 894.448 -118.802 894.262C-120.075 894.075 -121.282 893.579 -122.317 892.816C-123.353 892.053 -124.184 891.047 -124.739 889.887L-170.471 909.203L-170.725 908.452L-125.062 889.167C-125.064 889.077 -125.135 889.007 -125.167 888.927C-125.492 887.938 -125.617 886.893 -125.535 885.855C-125.452 884.817 -125.164 883.805 -124.686 882.88C-124.474 882.481 -124.231 882.1 -123.958 881.741L-154.551 856.266C-156.072 857.947 -158.183 858.976 -160.444 859.14C-162.704 859.304 -164.941 858.59 -166.689 857.147L-181.873 874.062L-182.158 873.19L-167.311 856.643C-168.323 855.652 -169.081 854.43 -169.52 853.083V853.083C-169.591 852.866 -169.648 852.645 -169.691 852.421L-187.759 855.93L-188.002 855.168L-169.824 851.648C-169.992 850.494 -169.931 849.318 -169.644 848.187C-169.357 847.056 -168.851 845.993 -168.153 845.058L-199.699 819.115L-199.911 818.464L-200.144 817.723L-167.65 844.406C-166.723 843.376 -165.566 842.578 -164.272 842.079L-204.356 722.892C-205.734 723.294 -207.184 723.385 -208.601 723.158L-217.009 765.711L-217.516 764.169L-209.771 724.968L-209.378 723.009C-210.762 722.67 -212.059 722.042 -213.182 721.164L-226.466 736.57L-226.751 735.688L-213.784 720.65C-214.987 719.526 -215.887 718.117 -216.404 716.553V716.553C-217.049 714.601 -217.054 712.494 -216.418 710.539C-215.781 708.584 -214.537 706.884 -212.865 705.686L-258.443 637.926L-259.33 635.202L-212.219 705.183C-210.338 703.979 -208.088 703.491 -205.877 703.807L-189.821 608.534L-179.089 544.844C-181.157 544.4 -183.017 543.277 -184.373 541.653L-268.841 605.88L-269.094 605.089L-184.845 541.077C-185.363 540.322 -185.772 539.498 -186.061 538.629V538.629C-186.599 537.013 -186.677 535.279 -186.286 533.622C-185.896 531.964 -185.052 530.448 -183.849 529.242L-251.527 458.026C-252.475 458.858 -253.582 459.488 -254.78 459.878C-255.928 460.249 -257.136 460.39 -258.338 460.295L-273.502 591.404L-274.094 589.601L-270.398 557.53L-259.144 460.237C-260.837 459.967 -262.424 459.236 -263.73 458.125C-265.036 457.014 -266.012 455.566 -266.55 453.938V453.938C-266.704 453.422 -266.819 452.895 -266.896 452.362L-317.058 457.239L-317.311 456.468L-266.949 451.568C-267.066 449.931 -266.744 448.292 -266.015 446.822C-265.435 445.693 -264.632 444.694 -263.653 443.886L-283.269 418.012C-284.128 418.613 -285.07 419.085 -286.066 419.414C-287.857 419.99 -289.769 420.077 -291.604 419.664C-293.44 419.252 -295.131 418.355 -296.502 417.067L-321.959 442.223L-322.224 441.382L-297.044 416.501C-298.066 415.408 -298.835 414.103 -299.298 412.68V412.68C-299.874 410.905 -299.962 409.008 -299.553 407.187L-336.404 397.685L-336.7 396.794L-299.323 406.409C-298.824 404.74 -297.904 403.229 -296.652 402.019L-309.418 388.211L-355.628 338.26L-356.125 336.727L-356.21 336.467L-296.097 401.446C-295.047 400.522 -293.822 399.818 -292.495 399.377C-292.314 399.314 -292.124 399.281 -291.943 399.228L-313.748 302.13C-315.315 302.405 -316.928 302.224 -318.395 301.609C-319.863 300.995 -321.123 299.972 -322.027 298.663L-360.669 322.692L-360.923 321.921L-322.469 298.035C-322.735 297.568 -322.955 297.075 -323.126 296.566V296.566C-323.685 294.843 -323.668 292.986 -323.076 291.275C-322.485 289.563 -321.352 288.091 -319.848 287.082L-362.756 217.449L-361.985 217.196L-319.221 286.64C-318.755 286.383 -318.266 286.17 -317.761 286.003C-316.291 285.53 -314.718 285.482 -313.223 285.863L-285.841 192.511L-284.94 192.215L-312.474 286.083C-310.936 286.618 -309.588 287.591 -308.596 288.883L-209.751 220.096C-210.151 219.471 -210.476 218.8 -210.718 218.098V218.098C-211.301 216.287 -211.299 214.34 -210.713 212.53L-231.974 204.722L-274.812 188.929L-273.59 188.537L-210.453 211.731C-209.906 210.422 -209.063 209.258 -207.989 208.331L-233.66 175.582L-232.858 175.318L-207.362 207.838C-206.6 207.297 -205.762 206.874 -204.875 206.582C-203.476 206.131 -201.989 206.026 -200.54 206.274L-196.621 188.092L-190.894 161.728L-190.023 161.453L-192.983 175.17L-199.742 206.483C-198.426 206.822 -197.204 207.454 -196.165 208.33C-195.126 209.206 -194.298 210.304 -193.742 211.544C-193.185 212.784 -192.915 214.132 -192.95 215.491C-192.985 216.849 -193.326 218.182 -193.946 219.391C-194.622 220.7 -195.611 221.822 -196.826 222.657L-186.986 238.04L-186.769 238.379C-185.018 237.338 -183.009 236.815 -180.973 236.87L-176.398 157.056L-175.597 156.792L-180.177 236.909C-178.308 237.083 -176.515 237.735 -174.971 238.803C-173.428 239.871 -172.185 241.319 -171.363 243.007C-170.541 244.695 -170.167 246.566 -170.278 248.44C-170.389 250.314 -170.981 252.127 -171.997 253.706L-134.977 279.395C-133.84 277.879 -132.26 276.754 -130.456 276.174C-130.246 276.1 -130.045 276.057 -129.835 276.003L-155.582 150.264L-154.831 150.021L-129.102 275.831C-127.981 275.636 -126.833 275.656 -125.719 275.89L-118.277 247.154L-87.473 128.148L-87.1726 128.043L-86.5815 127.852L-121.557 262.98L-124.95 276.12C-122.968 276.729 -121.244 277.981 -120.053 279.679L10.4247 196.555C10.0755 195.956 9.78916 195.323 9.57014 194.665V194.665C9.16612 193.433 9.01104 192.133 9.11393 190.84C9.21681 189.548 9.5756 188.288 10.1695 187.136C10.6973 186.107 11.4061 185.183 12.2619 184.406L-47.0912 115.105L-46.5302 114.926L-46.2797 114.851L-14.0525 152.362L12.877 183.812C13.5527 183.287 14.294 182.853 15.0821 182.52L-14.9056 104.605L-14.1545 104.352L15.8029 182.257L15.9237 182.255C17.5281 181.736 19.2389 181.637 20.8926 181.968L37.3246 113.821C36.018 113.439 34.8238 112.745 33.8448 111.799C32.8658 110.853 32.1312 109.683 31.7042 108.39C31.3362 107.233 31.226 106.01 31.3814 104.805C31.5369 103.601 31.9542 102.446 32.6041 101.42L29.1449 99.0568L20.6086 93.2076L21.5603 92.901L33.0271 100.779C33.2048 100.545 33.413 100.34 33.6111 100.126L25.4275 91.6739L26.269 91.3993L34.1659 99.5435C35.0336 98.7759 36.0541 98.2009 37.1603 97.8566C38.2642 97.5007 39.4304 97.3802 40.5837 97.503C41.737 97.6257 42.8518 97.9891 43.856 98.5694L54.0579 82.3956L54.4486 82.2688L55.23 82.0153L44.5269 98.992C45.7043 99.8195 46.6465 100.939 47.261 102.24C47.8755 103.541 48.1414 104.98 48.0324 106.415C47.9235 107.85 47.4435 109.232 46.6396 110.426C45.8356 111.619 44.7353 112.583 43.4465 113.224L66.9628 165.667C67.1929 165.573 67.4024 165.449 67.6328 165.375C69.0296 164.924 70.5054 164.771 71.965 164.926L85.2518 72.2123L86.0831 71.9378L76.2439 140.648L72.7419 165.034C74.5462 165.368 76.2318 166.167 77.6312 167.354C79.0306 168.54 80.0949 170.073 80.7183 171.798L302.491 101.368C302.07 99.8292 302.094 98.2022 302.56 96.676L234.463 72.3302L163.228 46.8849L163.849 46.6841L164.45 46.4836L233.043 71.003L302.81 95.9373C302.908 95.7243 302.965 95.502 303.072 95.2889C303.388 94.6853 303.775 94.1217 304.224 93.6101L231.428 24.7679L232.28 24.4931L304.809 93.0373C305.974 91.8862 307.452 91.1036 309.058 90.7871C310.665 90.4706 312.329 90.6343 313.843 91.2578L320.832 75.677C319.715 75.1195 318.719 74.346 317.903 73.4011C317.087 72.4563 316.466 71.359 316.077 70.1726V70.1726C315.637 68.8187 315.51 67.3829 315.705 65.973C315.9 64.563 316.411 63.2153 317.2 62.031L255.301 17.0627L256.232 16.7564L317.663 61.3896C318.809 59.9423 320.359 58.8675 322.116 58.3011L305.84 0.693161L306.591 0.450108L322.878 58.0981C324.323 57.7505 325.83 57.749 327.275 58.0935C328.721 58.438 330.065 59.1189 331.198 60.0808C332.331 61.0427 333.221 62.2585 333.795 63.6291C334.369 64.9998 334.612 66.4867 334.503 67.9689C334.395 69.4511 333.938 70.8867 333.169 72.1589C332.401 73.4312 331.344 74.5041 330.083 75.2905C328.822 76.0768 327.393 76.5544 325.912 76.6844C324.432 76.8143 322.941 76.5929 321.563 76.0383L314.583 91.5888C316.093 92.3528 317.342 93.5481 318.172 95.023C319.002 96.4979 319.376 98.186 319.245 99.8734C319.115 101.561 318.486 103.172 317.439 104.501C316.393 105.831 314.974 106.82 313.365 107.343C312.945 107.468 312.515 107.559 312.08 107.614L331.132 275.931C333.215 275.786 335.279 276.41 336.935 277.683C338.59 278.956 339.722 280.792 340.117 282.843C340.511 284.894 340.141 287.018 339.076 288.814C338.011 290.611 336.325 291.956 334.337 292.594L334.337 292.624ZM42.7258 113.497C42.5657 113.559 42.4262 113.652 42.2558 113.705C40.9122 114.131 39.4817 114.205 38.1013 113.92L22.2657 179.601L21.6595 182.087C23.1676 182.514 24.552 183.295 25.6978 184.365C26.8435 185.435 27.7176 186.762 28.2473 188.238L60.7697 178.034C60.1241 175.693 60.3177 173.201 61.3172 170.988C62.3167 168.775 64.0589 166.982 66.2418 165.919L62.5625 157.731L42.7258 113.497ZM-177.867 258.196C-179.414 258.694 -181.053 258.84 -182.663 258.622L-192.02 314.136L-197.779 348.283C-196.367 348.59 -195.061 349.264 -193.993 350.238L-134.495 291.176C-135.381 290.208 -136.051 289.061 -136.459 287.813V287.813C-136.877 286.518 -137.005 285.146 -136.834 283.795C-136.663 282.444 -136.198 281.147 -135.471 279.996L-172.491 254.318C-173.836 256.138 -175.715 257.494 -177.867 258.196V258.196ZM3.7931 515.14C3.9735 515.086 4.15437 515.064 4.33492 515.021L-11.5467 433.929C-11.9688 434 -12.3955 434.04 -12.8234 434.05L-13.2497 516.539C-11.5907 516.626 -9.99692 517.213 -8.67721 518.222C-7.3575 519.231 -6.37346 520.616 -5.85406 522.194C-5.72657 522.617 -5.6324 523.05 -5.57245 523.488L-1.64241 523.076C-1.73594 521.339 -1.25398 519.62 -0.271253 518.185C0.711478 516.75 2.14008 515.68 3.7931 515.14V515.14ZM22.28 200.883L34.1755 239.34C35.7729 238.934 37.4596 239.067 38.9734 239.719L65.9431 184.519C63.6487 183.298 61.8938 181.264 61.0233 178.815L28.5009 189.019C29.1466 191.419 28.8625 193.975 27.7054 196.174C26.5483 198.374 24.6035 200.056 22.2599 200.884L22.28 200.883ZM-124.029 293.512L-64.3193 453.675C-62.4781 453.084 -60.5048 453.039 -58.6386 453.546C-56.7724 454.054 -55.0935 455.092 -53.8054 456.534L-21.474 429.934C-22.1913 429.006 -22.7452 427.962 -23.112 426.848V426.848C-23.7445 424.916 -23.7973 422.841 -23.2638 420.879C-22.7303 418.917 -21.634 417.154 -20.1101 415.808L-122.043 292.364C-122.655 292.828 -123.322 293.214 -124.029 293.512V293.512ZM-20.9813 430.55L-53.2622 457.16C-52.5837 458.049 -52.0581 459.045 -51.7069 460.106C-51.093 461.999 -51.059 464.031 -51.6091 465.943C-52.1592 467.855 -53.2684 469.559 -54.7941 470.835L-18.3715 518.016C-17.7156 517.54 -16.9917 517.166 -16.2241 516.906C-15.5134 516.691 -14.7772 516.571 -14.0348 516.551L-13.5585 434.041C-14.9665 433.986 -16.3493 433.649 -17.6245 433.05C-18.8997 432.45 -20.0413 431.6 -20.9813 430.55V430.55ZM37.5669 318.689C37.6514 318.95 37.7158 319.211 37.7802 319.471L139.49 299.005C139.266 297.557 139.441 296.075 139.998 294.719L42.6669 250.143C41.9994 251.439 40.9668 252.511 39.6967 253.226C38.4266 253.942 36.9746 254.269 35.5203 254.168L29.0612 311.551C31.0008 311.837 32.8229 312.656 34.3246 313.916C35.8264 315.176 36.9488 316.829 37.5669 318.689V318.689ZM139.781 300.299C139.779 300.128 139.715 299.938 139.662 299.768L37.9336 320.285C38.3045 322.503 37.9512 324.782 36.9259 326.783C36.7792 327.068 36.5816 327.312 36.4145 327.576L60.8331 344.317L130.016 391.579C131 390.282 132.354 389.314 133.9 388.802C134.857 388.499 135.863 388.381 136.865 388.454L146.26 305.878C144.776 305.638 143.387 304.994 142.244 304.017C141.102 303.04 140.25 301.768 139.782 300.34L139.781 300.299ZM128.495 397.381C128.266 395.576 128.664 393.746 129.623 392.199L36.0213 328.197C34.6852 330.028 32.7895 331.376 30.6204 332.036C28.4512 332.695 26.1263 332.632 23.9965 331.854L-8.91204 414.036C-7.57017 414.629 -6.36804 415.498 -5.38359 416.586C-4.39914 417.674 -3.65437 418.957 -3.19759 420.351C-3.09195 420.68 -3.00614 421.015 -2.9406 421.354L93.8597 403.762L128.495 397.381ZM-19.0194 518.439L-55.4421 471.258C-56.2569 471.86 -57.1597 472.332 -58.1187 472.658C-58.9325 472.916 -59.7761 473.067 -60.6286 473.109L-60.4645 483.809C-58.909 483.862 -57.4072 484.39 -56.1616 485.324C-54.916 486.257 -53.9865 487.549 -53.4984 489.027C-53.1863 489.975 -53.0657 490.976 -53.1438 491.971C-53.2219 492.966 -53.497 493.935 -53.9531 494.823C-54.0606 495.036 -54.2088 495.22 -54.3366 495.423L-20.1891 519.635C-19.8376 519.21 -19.4457 518.819 -19.019 518.469L-19.0194 518.439ZM-67.61 494.469L-84.326 500.766L-168.232 532.698C-168.227 532.721 -168.226 532.745 -168.23 532.768C-167.844 533.938 -167.694 535.174 -167.791 536.403C-167.888 537.632 -168.23 538.829 -168.795 539.924L-50.7716 606.442C-49.749 604.787 -48.174 603.547 -46.3251 602.941C-45.9951 602.85 -45.6601 602.777 -45.3217 602.724L-60.0015 498.903C-61.5737 499.049 -63.1525 498.701 -64.5168 497.906C-65.8811 497.111 -66.9626 495.909 -67.61 494.469V494.469ZM-168.981 531.078C-168.806 531.377 -168.65 531.688 -168.514 532.007L-67.9234 493.729C-68.5376 491.813 -68.3682 489.732 -67.4524 487.941C-66.5366 486.15 -64.9488 484.794 -63.0362 484.17C-62.4456 483.99 -61.8354 483.883 -61.2189 483.85L-61.3829 473.161C-62.9692 473.121 -64.5236 472.706 -65.9191 471.951C-67.3146 471.195 -68.5117 470.121 -69.4128 468.814L-71.5967 470.177L-168.981 531.078ZM-118.715 287.511C-119.196 289.188 -120.139 290.696 -121.437 291.862L-104.409 312.47L-19.4936 415.306C-18.1211 414.226 -16.4946 413.517 -14.7697 413.245C-13.0447 412.974 -11.2789 413.149 -9.6412 413.755L23.2478 331.614C21.8975 331.019 20.6873 330.146 19.6958 329.053C18.7044 327.96 17.9537 326.671 17.4926 325.269V325.269C16.9329 323.552 16.8285 321.718 17.1896 319.948L-97.5358 292.572L-118.715 287.511ZM74.0987 185.239C71.6469 186.038 68.9854 185.896 66.6327 184.84L39.6626 240.021C41.3375 240.945 42.6013 242.469 43.2012 244.285C43.7344 245.959 43.6623 247.767 42.9977 249.393L140.338 293.958C140.958 292.775 141.858 291.762 142.961 291.009L76.1383 184.312C75.4956 184.697 74.8114 185.008 74.0987 185.239V185.239ZM-193.421 350.813C-192.642 351.679 -192.053 352.699 -191.694 353.807C-191.358 354.835 -191.23 355.919 -191.315 356.996C-191.4 358.074 -191.698 359.124 -192.191 360.086C-192.375 360.417 -192.579 360.736 -192.801 361.042L-68.832 456.795C-67.8109 455.576 -66.5093 454.624 -65.0389 454.019L-124.77 293.795C-126.337 294.301 -128.012 294.379 -129.62 294.024C-131.228 293.668 -132.713 292.891 -133.922 291.771L-159.704 317.396L-193.421 350.813ZM114.827 513.819C115.828 513.496 116.886 513.387 117.933 513.5L134.79 404.141C133.423 403.854 132.155 403.213 131.114 402.282C130.073 401.351 129.296 400.162 128.859 398.836V398.836C128.799 398.621 128.752 398.403 128.718 398.183L-2.79817 422.107C-2.48998 424.247 -2.85402 426.43 -3.83999 428.355C-4.05838 428.758 -4.30474 429.145 -4.57727 429.514L111.36 516.208C112.265 515.099 113.468 514.27 114.827 513.819V513.819ZM-51.6403 613.473C-52.3147 611.394 -52.1395 609.133 -51.1528 607.183L-169.197 540.645C-169.573 541.252 -170.017 541.812 -170.52 542.317L-83.3149 636.942C-82.3197 636.095 -81.166 635.455 -79.9209 635.058C-78.2492 634.518 -76.4647 634.43 -74.7477 634.801C-73.0308 635.173 -71.4424 635.991 -70.1432 637.173L-49.8318 616.515C-50.6502 615.646 -51.2676 614.607 -51.6403 613.473V613.473ZM-177.903 526.362C-176.256 526.232 -174.603 526.537 -173.111 527.247C-171.619 527.958 -170.341 529.049 -169.404 530.41L-69.8661 468.147C-70.2033 467.56 -70.4793 466.94 -70.6897 466.297C-71.0974 465.051 -71.2536 463.737 -71.1492 462.431C-71.0448 461.124 -70.6819 459.852 -70.0816 458.687C-69.8529 458.256 -69.5899 457.845 -69.2951 457.457L-167.794 381.357L-193.264 361.673C-194.243 362.836 -195.527 363.703 -196.971 364.177C-197.344 364.279 -197.722 364.359 -198.105 364.416L-178.992 517.681L-177.903 526.362ZM-118.505 286.743L17.3887 319.15C18.0368 316.795 19.4851 314.739 21.4846 313.336C23.4841 311.933 25.9098 311.27 28.345 311.461L34.8042 254.079C33.4407 253.856 32.1641 253.264 31.1124 252.369C30.0606 251.473 29.2737 250.306 28.8368 248.996V248.996C28.8299 248.919 28.8287 248.841 28.8332 248.764L-118.559 283.25C-118.314 284.4 -118.296 285.586 -118.505 286.743ZM150.182 305.616C149.189 305.931 148.146 306.057 147.107 305.986L137.712 388.552C139.083 388.788 140.369 389.379 141.442 390.265C142.515 391.15 143.338 392.301 143.83 393.603L210.053 372.553C209.301 369.893 209.584 367.047 210.847 364.587C211.297 363.705 211.864 362.887 212.531 362.155L153.185 303.829C152.316 304.639 151.281 305.249 150.152 305.617L150.182 305.616ZM-21.5011 527.296C-21.8366 526.268 -21.9653 525.184 -21.8799 524.107C-21.7944 523.029 -21.4966 521.979 -21.0034 521.017C-20.8711 520.786 -20.7266 520.562 -20.5708 520.346L-54.7183 496.134C-55.65 497.311 -56.9075 498.188 -58.3341 498.655C-58.6277 498.735 -58.926 498.797 -59.2273 498.84L-44.5476 602.652C-43.4959 602.554 -42.4351 602.657 -41.422 602.956L-16.7826 532.348C-17.8901 531.901 -18.8863 531.218 -19.7015 530.345C-20.5166 529.472 -21.1308 528.432 -21.5011 527.296ZM-77.9925 654.458C-79.5351 654.272 -81.0136 653.731 -82.3122 652.877C-83.6108 652.024 -84.6942 650.882 -85.4775 649.54L-88.3536 651.064L-198.283 709.308C-197.574 710.762 -197.242 712.372 -197.317 713.988C-197.393 715.604 -197.873 717.175 -198.715 718.557L-96.2647 785.766C-95.2995 784.373 -93.9966 783.248 -92.4781 782.496C-90.9596 781.744 -89.275 781.389 -87.5821 781.465L-81.3891 699.502L-77.9925 654.458ZM-260.539 442.157C-259.321 441.766 -258.035 441.63 -256.761 441.757C-255.488 441.885 -254.254 442.274 -253.138 442.899L-204.136 363.078C-205.021 362.483 -205.778 361.718 -206.365 360.827L-280.024 404.421C-279.712 404.986 -279.454 405.579 -279.252 406.191C-278.608 408.203 -278.585 410.362 -279.184 412.387C-279.783 414.413 -280.977 416.211 -282.612 417.549L-262.976 443.423C-262.232 442.881 -261.41 442.455 -260.539 442.157V442.157ZM-280.427 403.743L-206.778 360.149C-207.006 359.745 -207.195 359.32 -207.341 358.879C-207.978 356.884 -207.828 354.72 -206.92 352.832L-308.07 298.237C-309.079 299.964 -310.679 301.269 -312.574 301.911L-312.976 301.917L-291.171 399.055C-289.117 398.684 -286.999 398.931 -285.086 399.766C-283.174 400.6 -281.552 401.985 -280.427 403.743ZM-307.677 297.547L-206.539 352.081C-205.875 350.936 -204.934 349.974 -203.804 349.283C-202.674 348.593 -201.389 348.195 -200.066 348.126L-200.538 321.958L-202.307 224.331C-203.665 224.295 -204.997 223.956 -206.206 223.339C-207.416 222.722 -208.472 221.842 -209.298 220.764L-308.143 289.52C-307.365 290.702 -306.913 292.068 -306.831 293.481C-306.749 294.894 -307.041 296.303 -307.677 297.567L-307.677 297.547ZM76.7566 183.93L143.578 290.566C144.051 290.296 144.55 290.076 145.068 289.909C146.318 289.51 147.645 289.415 148.939 289.631C150.232 289.848 151.456 290.37 152.507 291.154L304.99 105.488C303.961 104.57 303.172 103.414 302.694 102.12L80.9608 172.509C81.5429 174.618 81.4506 176.856 80.6967 178.909C79.9429 180.963 78.5653 182.729 76.757 183.96L76.7566 183.93ZM210.306 373.314L144.073 394.354C144.472 395.876 144.41 397.482 143.895 398.968C143.38 400.455 142.435 401.755 141.181 402.704L157.657 426.764L185.574 467.431C186.179 467.046 186.831 466.738 187.513 466.515C189.075 466.006 190.748 465.946 192.343 466.341L217.245 380.064C215.651 379.541 214.197 378.662 212.994 377.492C211.791 376.322 210.872 374.893 210.306 373.314ZM184.916 467.874L174.998 453.338L140.604 403.156C139.114 404.106 137.341 404.511 135.587 404.3L118.71 513.659C120.578 514.058 122.229 515.143 123.337 516.699L182.535 479.377C182.238 478.857 181.993 478.307 181.806 477.737V477.737C181.23 475.974 181.221 474.075 181.779 472.307C182.336 470.538 183.433 468.988 184.916 467.874V467.874ZM-74.2317 654.169C-75.2122 654.443 -76.2296 654.56 -77.2466 654.517L-86.1499 772.443L-86.8363 781.514C-85.431 781.682 -84.0745 782.134 -82.8494 782.842L-54.2022 737.895C-55.6458 736.897 -56.7275 735.458 -57.2853 733.794V733.794C-57.9357 731.792 -57.7832 729.615 -56.8601 727.723C-55.9369 725.831 -54.3152 724.371 -52.3367 723.651L-56.8027 709.464L-74.2317 654.169ZM-163.521 841.846C-161.908 841.384 -160.196 841.388 -158.585 841.859C-156.975 842.33 -155.53 843.247 -154.419 844.505L-112.481 810.881L-96.1508 797.785C-96.8138 796.907 -97.3257 795.925 -97.6653 794.879V794.879C-98.0828 793.598 -98.2425 792.248 -98.1353 790.905C-98.028 789.563 -97.6558 788.255 -97.0402 787.057C-96.9327 786.844 -96.7745 786.66 -96.6568 786.457L-199.147 719.218C-200.264 720.777 -201.814 721.974 -203.605 722.659L-167.15 831.059L-163.521 841.846ZM-205.079 703.966C-203.745 704.25 -202.483 704.809 -201.376 705.606C-200.268 706.404 -199.338 707.423 -198.646 708.599L-85.8002 648.85C-85.9923 648.462 -86.1566 648.061 -86.2918 647.649V647.649C-86.874 645.903 -86.9509 644.028 -86.5134 642.24C-86.0759 640.452 -85.1419 638.824 -83.8192 637.544L-171.015 542.908C-171.95 543.696 -173.027 544.297 -174.189 544.679C-175.487 545.091 -176.859 545.215 -178.21 545.042L-194.018 638.831L-205.079 703.966ZM-183.314 528.64C-182.361 527.798 -181.243 527.164 -180.031 526.778C-179.592 526.636 -179.142 526.528 -178.687 526.455L-198.859 364.498C-200.449 364.622 -202.04 364.275 -203.435 363.501L-252.417 443.311C-251.284 444.069 -250.332 445.066 -249.627 446.233C-248.923 447.399 -248.484 448.706 -248.341 450.062C-248.198 451.417 -248.355 452.787 -248.801 454.075C-249.247 455.363 -249.97 456.537 -250.921 457.514L-226.229 483.532L-183.314 528.64ZM-197.514 223.08C-198.071 223.405 -198.661 223.67 -199.274 223.872C-200.002 224.109 -200.758 224.249 -201.522 224.289L-199.282 348.084C-199.03 348.08 -198.788 348.077 -198.557 348.073L-194.22 322.335L-183.452 258.402C-185.333 258.006 -187.078 257.123 -188.511 255.841C-189.944 254.559 -191.015 252.924 -191.618 251.098V251.098C-192.341 248.859 -192.325 246.448 -191.573 244.219C-190.82 241.99 -189.371 240.063 -187.438 238.721L-192.111 231.424L-197.514 223.08ZM-119.611 280.276C-119.281 280.84 -119.013 281.436 -118.808 282.056C-118.807 282.177 -118.744 282.297 -118.712 282.417L-77.0913 272.718L28.5891 247.942C28.2774 246.199 28.5888 244.401 29.4689 242.863C30.349 241.326 31.7416 240.147 33.4032 239.533L21.4988 201.147C19.5445 201.669 17.4769 201.579 15.5758 200.888C13.6746 200.197 12.0315 198.938 10.8687 197.283L-102.183 269.227L-119.611 280.276ZM305.582 106.002L153.11 291.699C154.188 292.653 154.998 293.873 155.459 295.237C155.62 295.743 155.733 296.264 155.795 296.792L323.192 284.691C323.141 282.845 323.69 281.032 324.756 279.524C325.821 278.016 327.347 276.893 329.104 276.325C329.528 276.201 329.961 276.11 330.399 276.053L311.306 107.666C309.26 107.814 307.23 107.224 305.582 106.002V106.002ZM324.693 289.339C324.207 288.667 323.822 287.926 323.552 287.142C323.388 286.611 323.272 286.067 323.205 285.516L205.928 293.959L155.807 297.587C155.854 298.621 155.695 299.654 155.338 300.626C154.981 301.598 154.435 302.488 153.73 303.247L179.631 328.702L213.096 361.593C214.192 360.543 215.493 359.732 216.918 359.21C218.342 358.688 219.86 358.466 221.374 358.559C222.889 358.652 224.368 359.058 225.718 359.751C227.068 360.443 228.26 361.408 229.219 362.584L324.693 289.339ZM109.587 520.766C109.649 519.368 110.091 518.014 110.866 516.85L-5.02015 430.175C-6.29142 431.757 -7.99917 432.931 -9.93162 433.552C-10.205 433.641 -10.4828 433.716 -10.7638 433.776L5.08749 514.858C6.92575 514.594 8.79819 514.986 10.3762 515.965C11.9542 516.944 13.1369 518.448 13.7168 520.212C13.9135 520.837 14.0283 521.485 14.0585 522.14L109.587 520.766ZM1.99649 529.282C0.443407 528.317 -0.722683 526.839 -1.29921 525.104V525.104C-1.42062 524.704 -1.50776 524.294 -1.55963 523.88L-5.49971 524.292C-5.41833 525.608 -5.65583 526.923 -6.19205 528.127C-6.72827 529.331 -7.54735 530.388 -8.57959 531.207C-9.61182 532.027 -10.8267 532.585 -12.1209 532.834C-13.4151 533.083 -14.7503 533.016 -16.013 532.638L-40.6235 603.166L-40.6223 603.246C-40.4095 603.334 -40.177 603.4 -39.974 603.508L1.99649 529.282ZM-44.5463 619.153C-46.3021 618.971 -47.9554 618.239 -49.2698 617.06L-69.591 637.728C-68.5845 638.799 -67.8229 640.075 -67.3591 641.469C-66.5577 643.935 -66.7499 646.617 -67.895 648.943C-69.04 651.269 -71.0475 653.057 -73.4904 653.926L-57.4995 704.723L-51.6259 723.388C-50.9535 723.212 -50.2612 723.124 -49.5661 723.125L-44.5463 619.153ZM-49.0457 739.336C-50.6285 739.431 -52.2047 739.063 -53.5822 738.278L-77.3117 775.66L-82.1481 783.274C-80.5373 784.368 -79.2757 785.902 -78.5143 787.694C-77.753 789.485 -77.5243 791.458 -77.8555 793.377L-50.4362 798.997C-50.0799 797.509 -49.3459 796.137 -48.305 795.016C-47.264 793.894 -45.9514 793.06 -44.494 792.593C-44.0391 792.446 -43.5726 792.338 -43.0995 792.27L-49.0457 739.336ZM-70.7355 920.228C-70.109 920.181 -69.4791 920.215 -68.8614 920.33L-44.036 809.983C-45.4884 809.588 -46.8197 808.838 -47.9095 807.8C-48.9994 806.763 -49.8135 805.469 -50.2784 804.038V804.038C-50.7139 802.67 -50.8122 801.218 -50.5648 799.804L-58.2908 798.211L-78.0149 794.144C-78.4655 796.091 -79.4879 797.858 -80.9507 799.219C-82.4134 800.579 -84.2497 801.471 -86.2235 801.78L-70.7355 920.228ZM-91.3949 801.336C-93.0562 800.731 -94.5369 799.715 -95.6987 798.382L-153.957 845.133C-153.397 845.887 -152.962 846.727 -152.67 847.62C-152.233 848.977 -152.129 850.42 -152.369 851.826C-152.609 853.232 -153.184 854.559 -154.046 855.695L-129.021 876.543L-123.484 881.17C-122.533 880.109 -121.305 879.334 -119.939 878.931C-118.573 878.527 -117.121 878.512 -115.747 878.887L-91.3949 801.336Z" fill="url(#paint0_linear)"/>
<defs>
<linearGradient id="paint0_linear" x1="-0.761976" y1="934.372" x2="-15.0083" y2="5.3819" gradientUnits="userSpaceOnUse">
<stop stop-color="#3ECEE5" stop-opacity="0.913979"/>
<stop offset="0.0001" stop-color="#3ECEE5"/>
<stop offset="0.979167" stop-color="#3ECEE5" stop-opacity="0"/>
</linearGradient>
</defs>
</svg>
