<svg width="44" height="41" viewBox="0 0 44 41" fill="none" xmlns="http://www.w3.org/2000/svg">
<path d="M39.527 3.599H34.3029V2.2995C34.3029 1.95485 34.1653 1.62432 33.9204 1.38061C33.6755 1.13691 33.3433 1 32.9969 1C32.6506 1 32.3184 1.13691 32.0735 1.38061C31.8286 1.62432 31.691 1.95485 31.691 2.2995V3.599H12.1009V2.2995C12.1009 1.95485 11.9633 1.62432 11.7184 1.38061C11.4734 1.13691 11.1413 1 10.7949 1C10.4486 1 10.1164 1.13691 9.87147 1.38061C9.62655 1.62432 9.48896 1.95485 9.48896 2.2995V3.599H4.26488C3.39925 3.60005 2.56939 3.9427 1.95732 4.55179C1.34526 5.16089 1.00098 5.98668 1 6.84803V37.3874C1.00098 38.2487 1.34527 39.0745 1.95734 39.6835C2.56941 40.2926 3.39928 40.6352 4.26488 40.6362H39.527C40.3926 40.6352 41.2224 40.2926 41.8345 39.6835C42.4466 39.0745 42.7909 38.2487 42.7918 37.3874V6.84803C42.7909 5.98668 42.4466 5.16089 41.8345 4.55179C41.2224 3.9427 40.3926 3.60005 39.527 3.599ZM4.26488 6.19828H9.48896V7.49778C9.48896 7.84243 9.62655 8.17296 9.87147 8.41667C10.1164 8.66037 10.4486 8.79728 10.7949 8.79728C11.1413 8.79728 11.4734 8.66037 11.7184 8.41667C11.9633 8.17296 12.1009 7.84243 12.1009 7.49778V6.19828H31.691V7.49778C31.691 7.84243 31.8286 8.17296 32.0735 8.41667C32.3184 8.66037 32.6506 8.79728 32.9969 8.79728C33.3433 8.79728 33.6755 8.66037 33.9204 8.41667C34.1653 8.17296 34.3029 7.84243 34.3029 7.49778V6.19828H39.527C39.6997 6.20019 39.8648 6.26921 39.9871 6.39061C40.1093 6.51201 40.1791 6.67617 40.1814 6.84803V11.3963H3.6119V6.84803C3.61418 6.67641 3.68371 6.51247 3.80568 6.3911C3.92764 6.26974 4.09241 6.20055 4.26488 6.19828ZM39.527 38.0372H4.26488C4.09192 38.0352 3.92658 37.966 3.80427 37.8443C3.68196 37.7226 3.6124 37.5581 3.61048 37.386V13.995H40.1799V37.3868C40.1778 37.5586 40.1083 37.7227 39.9864 37.8441C39.8644 37.9656 39.6995 38.0349 39.527 38.0372Z" fill="#3ECEE5" stroke="#3ECEE5" stroke-width="0.5"/>
<path d="M19.936 16.5945H15.3649C15.0043 16.5945 14.7119 16.8854 14.7119 17.2442V20.4933C14.7119 20.8521 15.0043 21.143 15.3649 21.143H19.936C20.2966 21.143 20.589 20.8521 20.589 20.4933V17.2442C20.589 16.8854 20.2966 16.5945 19.936 16.5945Z" fill="#3ECEE5" stroke="#3ECEE5" stroke-width="0.5"/>
<path d="M28.4262 16.5945H23.8551C23.4945 16.5945 23.2021 16.8854 23.2021 17.2442V20.4933C23.2021 20.8521 23.4945 21.143 23.8551 21.143H28.4262C28.7869 21.143 29.0792 20.8521 29.0792 20.4933V17.2442C29.0792 16.8854 28.7869 16.5945 28.4262 16.5945Z" fill="#3ECEE5" stroke="#3ECEE5" stroke-width="0.5"/>
<path d="M36.9145 16.5945H32.3434C31.9828 16.5945 31.6904 16.8854 31.6904 17.2442V20.4933C31.6904 20.8521 31.9828 21.143 32.3434 21.143H36.9145C37.2751 21.143 37.5675 20.8521 37.5675 20.4933V17.2442C37.5675 16.8854 37.2751 16.5945 36.9145 16.5945Z" fill="#3ECEE5" stroke="#3ECEE5" stroke-width="0.5"/>
<path d="M19.936 23.7419H15.3649C15.0043 23.7419 14.7119 24.0328 14.7119 24.3917V27.6407C14.7119 27.9996 15.0043 28.2905 15.3649 28.2905H19.936C20.2966 28.2905 20.589 27.9996 20.589 27.6407V24.3917C20.589 24.0328 20.2966 23.7419 19.936 23.7419Z" fill="#3ECEE5" stroke="#3ECEE5" stroke-width="0.5"/>
<path d="M11.4487 23.7419H6.87758C6.51696 23.7419 6.22461 24.0328 6.22461 24.3917V27.6407C6.22461 27.9996 6.51696 28.2905 6.87758 28.2905H11.4487C11.8093 28.2905 12.1017 27.9996 12.1017 27.6407V24.3917C12.1017 24.0328 11.8093 23.7419 11.4487 23.7419Z" fill="#3ECEE5" stroke="#3ECEE5" stroke-width="0.5"/>
<path d="M28.4262 23.7419H23.8551C23.4945 23.7419 23.2021 24.0328 23.2021 24.3917V27.6407C23.2021 27.9996 23.4945 28.2905 23.8551 28.2905H28.4262C28.7869 28.2905 29.0792 27.9996 29.0792 27.6407V24.3917C29.0792 24.0328 28.7869 23.7419 28.4262 23.7419Z" fill="#3ECEE5" stroke="#3ECEE5" stroke-width="0.5"/>
<path d="M36.9145 23.7419H32.3434C31.9828 23.7419 31.6904 24.0328 31.6904 24.3917V27.6407C31.6904 27.9996 31.9828 28.2905 32.3434 28.2905H36.9145C37.2751 28.2905 37.5675 27.9996 37.5675 27.6407V24.3917C37.5675 24.0328 37.2751 23.7419 36.9145 23.7419Z" fill="#3ECEE5" stroke="#3ECEE5" stroke-width="0.5"/>
<path d="M19.936 30.8896H15.3649C15.0043 30.8896 14.7119 31.1806 14.7119 31.5394V34.7884C14.7119 35.1473 15.0043 35.4382 15.3649 35.4382H19.936C20.2966 35.4382 20.589 35.1473 20.589 34.7884V31.5394C20.589 31.1806 20.2966 30.8896 19.936 30.8896Z" fill="#3ECEE5" stroke="#3ECEE5" stroke-width="0.5"/>
<path d="M11.4487 30.8896H6.87758C6.51696 30.8896 6.22461 31.1806 6.22461 31.5394V34.7884C6.22461 35.1473 6.51696 35.4382 6.87758 35.4382H11.4487C11.8093 35.4382 12.1017 35.1473 12.1017 34.7884V31.5394C12.1017 31.1806 11.8093 30.8896 11.4487 30.8896Z" fill="#3ECEE5" stroke="#3ECEE5" stroke-width="0.5"/>
<path d="M28.4262 30.8896H23.8551C23.4945 30.8896 23.2021 31.1806 23.2021 31.5394V34.7884C23.2021 35.1473 23.4945 35.4382 23.8551 35.4382H28.4262C28.7869 35.4382 29.0792 35.1473 29.0792 34.7884V31.5394C29.0792 31.1806 28.7869 30.8896 28.4262 30.8896Z" fill="#3ECEE5" stroke="#3ECEE5" stroke-width="0.5"/>
</svg>
